<svg id="Layer_1" data-name="Layer 1" xmlns="http://www.w3.org/2000/svg" viewBox="0 0 512 386.44"><defs><style>.cls-1{fill:#50efc1;}</style></defs><path class="cls-1" d="M469.33,57.24H42.67A42.73,42.73,0,0,0,0,99.91V443.68L36.78,406.9l8.33-8.33H469.33A42.72,42.72,0,0,0,512,355.91v-256A42.73,42.73,0,0,0,469.33,57.24ZM341.33,299H170.67a14.22,14.22,0,0,1,0-28.44H341.33a14.22,14.22,0,1,1,0,28.44Zm0-56.89H170.67a14.22,14.22,0,1,1,0-28.44H341.33a14.22,14.22,0,1,1,0,28.44Zm0-56.89H170.67a14.22,14.22,0,0,1,0-28.44H341.33a14.22,14.22,0,1,1,0,28.44Z" transform="translate(0 -57.24)"/></svg>