<?xml version="1.0" encoding="utf-8"?>
<!-- Generator: Adobe Illustrator 25.3.1, SVG Export Plug-In . SVG Version: 6.00 Build 0)  -->
<svg version="1.1" id="Layer_1" xmlns="http://www.w3.org/2000/svg" xmlns:xlink="http://www.w3.org/1999/xlink" x="0px" y="0px"
	 viewBox="0 0 512 512" style="enable-background:new 0 0 512 512;" xml:space="preserve">
<style type="text/css">
	.st0{fill:#50EFC1;}
</style>
<g>
	<g>
		<path class="st0" d="M503.8,432.9l-89.9-89.9c0,0,0,0,0,0s0,0,0,0l-32.1-32.1c-10.9-10.9-28.5-10.9-39.4,0l-3.9,3.9l-13.6-13.6
			c26.6-31.9,42.6-72.9,42.6-117.5C367.5,82.4,285.1,0,183.8,0S0,82.4,0,183.8s82.4,183.8,183.8,183.8c44.7,0,85.6-16,117.5-42.6
			l13.6,13.6l-3.9,3.9c-10.9,10.9-10.9,28.5,0,39.4l122,122c10.9,10.9,28.5,10.9,39.4,0l31.5-31.5
			C514.7,461.5,514.7,443.8,503.8,432.9z M183.8,334.1c-82.9,0-150.3-67.4-150.3-150.3S100.9,33.4,183.8,33.4
			s150.3,67.4,150.3,150.3S266.7,334.1,183.8,334.1z M338.5,362.1l23.6-23.6l16.4,16.4l-23.6,23.6L338.5,362.1z M452.6,476.3
			l-74.1-74.1l23.6-23.6l74.1,74.1L452.6,476.3z"/>
	</g>
</g>
<g>
	<g>
		<path class="st0" d="M183.8,66.8c-9.2,0-16.7,7.5-16.7,16.7s7.5,16.7,16.7,16.7c46,0,83.5,37.5,83.5,83.5
			c0,9.2,7.5,16.7,16.7,16.7c9.2,0,16.7-7.5,16.7-16.7C300.7,119.3,248.2,66.8,183.8,66.8z"/>
	</g>
</g>
</svg>
