<svg xmlns="http://www.w3.org/2000/svg" xmlns:xlink="http://www.w3.org/1999/xlink" viewBox="0 0 233.97 304.44"><defs><style>.cls-1{fill:url(#White_Black_2);}.cls-2{fill:url(#linear-gradient);}.cls-3{fill:url(#linear-gradient-2);}.cls-4{fill:url(#linear-gradient-3);}.cls-5{fill:url(#linear-gradient-4);}.cls-6{fill:url(#linear-gradient-5);}.cls-7{isolation:isolate;}.cls-8{mask:url(#mask);}.cls-9{mask:url(#mask-2);}.cls-10{opacity:0.95;}.cls-11{fill:url(#linear-gradient-6);}.cls-12,.cls-17,.cls-184,.cls-22,.cls-27,.cls-32{mix-blend-mode:color-dodge;}.cls-12{fill:url(#Radial_Gradient_1);}.cls-13{fill:url(#linear-gradient-7);}.cls-14{fill:url(#linear-gradient-8);}.cls-15{mask:url(#mask-3);}.cls-16{fill:url(#linear-gradient-9);}.cls-17{fill:url(#Radial_Gradient_1-2);}.cls-18{fill:url(#linear-gradient-10);}.cls-19{fill:url(#linear-gradient-11);}.cls-20{mask:url(#mask-4);}.cls-21{fill:url(#linear-gradient-12);}.cls-22{fill:url(#Radial_Gradient_1-3);}.cls-23{fill:url(#linear-gradient-13);}.cls-24{fill:url(#linear-gradient-14);}.cls-25{mask:url(#mask-5);}.cls-26{fill:url(#linear-gradient-15);}.cls-27{fill:url(#Radial_Gradient_1-4);}.cls-28{fill:url(#linear-gradient-16);}.cls-29{fill:url(#linear-gradient-17);}.cls-30{mask:url(#mask-6);}.cls-31{fill:url(#linear-gradient-18);}.cls-32{fill:url(#Radial_Gradient_1-5);}.cls-33{fill:url(#linear-gradient-19);}.cls-34{fill:url(#linear-gradient-20);}.cls-164,.cls-35,.cls-36,.cls-40,.cls-58,.cls-59,.cls-67,.cls-71{mix-blend-mode:multiply;}.cls-35{fill:url(#linear-gradient-21);}.cls-36{fill:url(#linear-gradient-22);}.cls-37{fill:url(#radial-gradient);}.cls-38{fill:url(#radial-gradient-2);}.cls-39{fill:url(#linear-gradient-23);}.cls-40{fill:url(#linear-gradient-24);}.cls-41{fill:url(#radial-gradient-3);}.cls-42{fill:url(#radial-gradient-4);}.cls-43{fill:url(#radial-gradient-5);}.cls-44{fill:url(#radial-gradient-6);}.cls-45{fill:url(#linear-gradient-25);}.cls-46{fill:url(#linear-gradient-26);}.cls-47{fill:url(#linear-gradient-27);}.cls-48{fill:url(#New_Gradient_Swatch_copy_9);}.cls-49{fill:url(#New_Gradient_Swatch_copy_9-2);}.cls-50{fill:url(#linear-gradient-28);}.cls-51{fill:url(#New_Gradient_Swatch_copy_9-3);}.cls-52{fill:url(#New_Gradient_Swatch_copy_9-4);}.cls-53{fill:url(#linear-gradient-29);}.cls-54{fill:url(#radial-gradient-7);}.cls-55{fill:url(#radial-gradient-8);}.cls-56{fill:url(#radial-gradient-9);}.cls-57{fill:url(#radial-gradient-10);}.cls-58{fill:#d1d3d4;}.cls-59{opacity:0.1;}.cls-60{fill:#10054d;}.cls-61{fill:url(#linear-gradient-30);}.cls-62{fill:url(#linear-gradient-31);}.cls-63{fill:url(#linear-gradient-32);}.cls-64{fill:url(#radial-gradient-11);}.cls-65{fill:url(#New_Gradient_Swatch_copy_7);}.cls-66{fill:url(#radial-gradient-12);}.cls-67{fill:url(#linear-gradient-33);}.cls-68{fill:url(#radial-gradient-13);}.cls-69{fill:url(#radial-gradient-14);}.cls-70{fill:url(#linear-gradient-34);}.cls-71{fill:url(#linear-gradient-35);}.cls-72{fill:url(#New_Gradient_Swatch_copy_7-2);}.cls-73{fill:url(#radial-gradient-15);}.cls-74{fill:url(#radial-gradient-16);}.cls-75{fill:url(#radial-gradient-17);}.cls-76{fill:url(#linear-gradient-36);}.cls-77{fill:url(#linear-gradient-37);}.cls-78{fill:url(#linear-gradient-38);}.cls-79{fill:url(#radial-gradient-18);}.cls-80{fill:url(#radial-gradient-19);}.cls-81{fill:url(#linear-gradient-39);}.cls-82{fill:url(#radial-gradient-20);}.cls-83{fill:url(#radial-gradient-21);}.cls-84{fill:url(#linear-gradient-40);}.cls-85{fill:url(#radial-gradient-22);}.cls-86{fill:url(#linear-gradient-41);}.cls-87{fill:url(#radial-gradient-23);}.cls-88{opacity:0;}.cls-89{opacity:0.01;}.cls-90{opacity:0.02;}.cls-91{opacity:0.03;}.cls-92{opacity:0.04;}.cls-93{opacity:0.05;}.cls-94{opacity:0.06;}.cls-95{opacity:0.07;}.cls-96{opacity:0.08;}.cls-97{opacity:0.09;}.cls-98{opacity:0.1;}.cls-99{opacity:0.1;}.cls-100{opacity:0.11;}.cls-101{opacity:0.12;}.cls-102{opacity:0.13;}.cls-103{opacity:0.14;}.cls-104{opacity:0.15;}.cls-105{opacity:0.16;}.cls-106{opacity:0.17;}.cls-107{opacity:0.18;}.cls-108{opacity:0.19;}.cls-109{opacity:0.2;}.cls-110{fill:url(#linear-gradient-42);}.cls-111{fill:url(#linear-gradient-43);}.cls-112{fill:url(#linear-gradient-44);}.cls-113{fill:url(#linear-gradient-45);}.cls-114{fill:url(#linear-gradient-46);}.cls-115{fill:url(#linear-gradient-47);}.cls-116{fill:url(#linear-gradient-48);}.cls-117{fill:url(#linear-gradient-49);}.cls-118{fill:url(#linear-gradient-50);}.cls-119{fill:url(#linear-gradient-51);}.cls-120{fill:url(#linear-gradient-52);}.cls-121{fill:url(#linear-gradient-53);}.cls-122{fill:url(#linear-gradient-54);}.cls-123{fill:url(#linear-gradient-55);}.cls-124{fill:url(#linear-gradient-56);}.cls-125{fill:url(#linear-gradient-57);}.cls-126{fill:url(#linear-gradient-58);}.cls-127{fill:url(#linear-gradient-59);}.cls-128{fill:url(#linear-gradient-60);}.cls-129{fill:url(#linear-gradient-61);}.cls-130{fill:url(#linear-gradient-62);}.cls-131{fill:url(#linear-gradient-63);}.cls-132{fill:url(#linear-gradient-64);}.cls-133{fill:url(#linear-gradient-65);}.cls-134{fill:url(#linear-gradient-66);}.cls-135{fill:url(#linear-gradient-67);}.cls-136{fill:url(#linear-gradient-68);}.cls-137{fill:url(#linear-gradient-69);}.cls-138{fill:url(#linear-gradient-70);}.cls-139{fill:url(#linear-gradient-71);}.cls-140{fill:url(#linear-gradient-72);}.cls-141{fill:url(#linear-gradient-73);}.cls-142{fill:url(#linear-gradient-74);}.cls-143{fill:url(#linear-gradient-75);}.cls-144{fill:url(#linear-gradient-76);}.cls-145{fill:url(#linear-gradient-77);}.cls-146{fill:url(#linear-gradient-78);}.cls-147{fill:url(#linear-gradient-79);}.cls-148{fill:url(#linear-gradient-80);}.cls-149{fill:url(#linear-gradient-81);}.cls-150{fill:url(#linear-gradient-82);}.cls-151{fill:url(#linear-gradient-83);}.cls-152{fill:url(#linear-gradient-84);}.cls-153{fill:url(#linear-gradient-85);}.cls-154{fill:url(#linear-gradient-86);}.cls-155{fill:url(#linear-gradient-87);}.cls-156{fill:url(#linear-gradient-88);}.cls-157{fill:url(#linear-gradient-89);}.cls-158{fill:url(#linear-gradient-90);}.cls-159{fill:url(#linear-gradient-91);}.cls-160{fill:url(#linear-gradient-92);}.cls-161{fill:url(#linear-gradient-93);}.cls-162{fill:url(#linear-gradient-94);}.cls-163{fill:url(#linear-gradient-95);}.cls-164{fill:url(#radial-gradient-24);}.cls-165{fill:url(#radial-gradient-25);}.cls-166{fill:url(#radial-gradient-26);}.cls-167{fill:url(#radial-gradient-27);}.cls-168{fill:url(#radial-gradient-28);}.cls-169{fill:url(#radial-gradient-29);}.cls-170{fill:url(#radial-gradient-30);}.cls-171{fill:url(#New_Gradient_Swatch_copy_7-3);}.cls-172{fill:url(#radial-gradient-31);}.cls-173{fill:url(#linear-gradient-96);}.cls-174{fill:url(#New_Gradient_Swatch_copy_7-4);}.cls-175{fill:url(#linear-gradient-97);}.cls-176{fill:url(#New_Gradient_Swatch_copy_7-5);}.cls-177{fill:url(#linear-gradient-98);}.cls-178{fill:url(#New_Gradient_Swatch_copy_7-6);}.cls-179{fill:url(#radial-gradient-32);}.cls-180{fill:url(#linear-gradient-99);}.cls-181{fill:url(#linear-gradient-100);}.cls-182{fill:url(#New_Gradient_Swatch_copy_7-7);}.cls-183{fill:url(#New_Gradient_Swatch_copy_7-8);}.cls-184{fill:url(#radial-gradient-33);}.cls-185{fill:url(#New_Gradient_Swatch_copy_7-9);}</style><linearGradient id="White_Black_2" x1="122.7" y1="178.2" x2="162.97" y2="254.85" gradientUnits="userSpaceOnUse"><stop offset="0" stop-color="#fff"/><stop offset="1"/></linearGradient><linearGradient id="linear-gradient" x1="7126.9" y1="2713.17" x2="7126.9" y2="2455.75" gradientTransform="translate(-6918.23 -2437.32)" gradientUnits="userSpaceOnUse"><stop offset="0.56" stop-color="#fff"/><stop offset="0.61" stop-color="#f5f4f5"/><stop offset="0.69" stop-color="#d8d8d9"/><stop offset="0.8" stop-color="#abaaab"/><stop offset="0.92" stop-color="#6c6c6d"/><stop offset="1" stop-color="#414042"/></linearGradient><linearGradient id="linear-gradient-2" x1="7165.18" y1="2690.9" x2="7165.18" y2="2433.48" gradientTransform="translate(-6994.79 -2392.79)" xlink:href="#linear-gradient"/><linearGradient id="linear-gradient-3" x1="7203.16" y1="2668.63" x2="7203.16" y2="2411.21" gradientTransform="translate(-7070.75 -2348.25)" xlink:href="#linear-gradient"/><linearGradient id="linear-gradient-4" x1="7241.44" y1="2646.37" x2="7241.44" y2="2388.94" gradientTransform="translate(-7147.31 -2303.71)" xlink:href="#linear-gradient"/><linearGradient id="linear-gradient-5" x1="7280.33" y1="2623.79" x2="7280.33" y2="2366.37" gradientTransform="translate(-7225.1 -2258.57)" xlink:href="#linear-gradient"/><mask id="mask" x="-13.2" y="24.24" width="270.23" height="279.33" maskUnits="userSpaceOnUse"><g transform="translate(-12.24 -13.24)"><polygon class="cls-1" points="-0.31 183.64 231.6 37.48 269.27 148.56 264.08 212.87 48.41 316.81 -0.96 290.82 -0.31 183.64"/></g></mask><mask id="mask-2" x="137.53" y="-10.02" width="117.8" height="283.01" maskUnits="userSpaceOnUse"><g transform="translate(-12.24 -13.24)"><rect class="cls-2" x="149.77" y="3.22" width="117.8" height="283.01" transform="translate(417.34 289.46) rotate(180)"/></g></mask><linearGradient id="linear-gradient-6" x1="219.19" y1="52.25" x2="191.67" y2="99.91" gradientUnits="userSpaceOnUse"><stop offset="0" stop-color="#5513ab"/><stop offset="1" stop-color="#be3bff"/></linearGradient><radialGradient id="Radial_Gradient_1" cx="201.02" cy="93.22" r="24.23" xlink:href="#White_Black_2"/><linearGradient id="linear-gradient-7" x1="205.78" y1="143.16" x2="391.55" y2="128.92" xlink:href="#linear-gradient-6"/><linearGradient id="linear-gradient-8" x1="134.72" y1="133.91" x2="230.52" y2="149.96" xlink:href="#linear-gradient-6"/><mask id="mask-3" x="99.25" y="12.24" width="117.8" height="283.01" maskUnits="userSpaceOnUse"><g transform="translate(-12.24 -13.24)"><rect class="cls-3" x="111.49" y="25.49" width="117.8" height="283.01" transform="translate(340.77 333.99) rotate(180)"/></g></mask><linearGradient id="linear-gradient-9" x1="180.9" y1="90.08" x2="153.39" y2="137.73" xlink:href="#linear-gradient-6"/><radialGradient id="Radial_Gradient_1-2" cx="162.74" cy="131.05" r="24.23" xlink:href="#White_Black_2"/><linearGradient id="linear-gradient-10" x1="167.83" y1="173.18" x2="348.31" y2="159.34" xlink:href="#linear-gradient-6"/><linearGradient id="linear-gradient-11" x1="98.91" y1="164.37" x2="189.96" y2="179.63" xlink:href="#linear-gradient-6"/><mask id="mask-4" x="61.27" y="34.51" width="117.8" height="283.01" maskUnits="userSpaceOnUse"><g transform="translate(-12.24 -13.24)"><rect class="cls-4" x="73.51" y="47.76" width="117.8" height="283.01" transform="translate(264.82 378.53) rotate(180)"/></g></mask><linearGradient id="linear-gradient-12" x1="142.93" y1="128.31" x2="115.41" y2="175.96" xlink:href="#linear-gradient-6"/><radialGradient id="Radial_Gradient_1-3" cx="124.76" cy="169.28" r="24.23" xlink:href="#White_Black_2"/><linearGradient id="linear-gradient-13" x1="130.2" y1="203.41" x2="305.25" y2="189.98" xlink:href="#linear-gradient-6"/><linearGradient id="linear-gradient-14" x1="63.47" y1="195.05" x2="149.65" y2="209.49" xlink:href="#linear-gradient-6"/><mask id="mask-5" x="22.99" y="56.78" width="117.8" height="283.01" maskUnits="userSpaceOnUse"><g transform="translate(-12.24 -13.24)"><rect class="cls-5" x="35.23" y="70.02" width="117.8" height="283.01" transform="translate(188.25 423.06) rotate(180)"/></g></mask><linearGradient id="linear-gradient-15" x1="104.64" y1="166.13" x2="77.13" y2="213.79" xlink:href="#linear-gradient-6"/><radialGradient id="Radial_Gradient_1-4" cx="86.48" cy="207.1" r="24.23" xlink:href="#White_Black_2"/><linearGradient id="linear-gradient-16" x1="92.25" y1="233.43" x2="262.01" y2="220.41" xlink:href="#linear-gradient-6"/><linearGradient id="linear-gradient-17" x1="27.66" y1="225.51" x2="109.09" y2="239.15" xlink:href="#linear-gradient-6"/><mask id="mask-6" x="-15.91" y="79.35" width="117.8" height="283.01" maskUnits="userSpaceOnUse"><g transform="translate(-12.24 -13.24)"><rect class="cls-6" x="-3.66" y="92.6" width="117.8" height="283.01" transform="translate(110.47 468.21) rotate(180)"/></g></mask><linearGradient id="linear-gradient-18" x1="65.75" y1="203.94" x2="38.24" y2="251.6" xlink:href="#linear-gradient-6"/><radialGradient id="Radial_Gradient_1-5" cx="47.58" cy="244.91" r="24.23" xlink:href="#White_Black_2"/><linearGradient id="linear-gradient-19" x1="53.68" y1="263.6" x2="218.27" y2="250.97" xlink:href="#linear-gradient-6"/><linearGradient id="linear-gradient-20" x1="-8.81" y1="256.11" x2="67.96" y2="268.97" xlink:href="#linear-gradient-6"/><linearGradient id="linear-gradient-21" x1="53.73" y1="245.72" x2="77.01" y2="240.03" gradientUnits="userSpaceOnUse"><stop offset="0.21" stop-color="#d4d1d8"/><stop offset="1" stop-color="#fff"/></linearGradient><linearGradient id="linear-gradient-22" x1="83.95" y1="216.87" x2="84.23" y2="232.52" xlink:href="#linear-gradient-21"/><radialGradient id="radial-gradient" cx="78.8" cy="157.4" r="46.39" gradientUnits="userSpaceOnUse"><stop offset="0.03" stop-color="#fedfcb"/><stop offset="0.78" stop-color="#f9b69e"/><stop offset="0.99" stop-color="#f2a78c"/></radialGradient><radialGradient id="radial-gradient-2" cx="58.55" cy="191.7" r="4.11" xlink:href="#radial-gradient"/><linearGradient id="linear-gradient-23" x1="81.81" y1="194.23" x2="79.48" y2="159.73" gradientUnits="userSpaceOnUse"><stop offset="0.01" stop-color="#c6ccd1"/><stop offset="1" stop-color="#fff"/></linearGradient><linearGradient id="linear-gradient-24" x1="68.07" y1="184.5" x2="63.25" y2="178.64" gradientUnits="userSpaceOnUse"><stop offset="0.01" stop-color="#e6e7e8"/><stop offset="0.64" stop-color="#fff"/></linearGradient><radialGradient id="radial-gradient-3" cx="91.82" cy="200.61" r="21.94" xlink:href="#radial-gradient"/><radialGradient id="radial-gradient-4" cx="97.68" cy="212.36" r="19.83" xlink:href="#radial-gradient"/><radialGradient id="radial-gradient-5" cx="81.17" cy="232.87" r="33.11" xlink:href="#radial-gradient"/><radialGradient id="radial-gradient-6" cx="127.41" cy="220.65" r="69.2" xlink:href="#radial-gradient"/><linearGradient id="linear-gradient-25" x1="79.04" y1="222.08" x2="88.71" y2="222.08" gradientUnits="userSpaceOnUse"><stop offset="0.09" stop-color="#25054d"/><stop offset="0.47" stop-color="#330a68"/><stop offset="0.89" stop-color="#45108a"/></linearGradient><linearGradient id="linear-gradient-26" x1="54.93" y1="244.27" x2="62.03" y2="244.27" xlink:href="#linear-gradient-25"/><linearGradient id="linear-gradient-27" x1="58.62" y1="246.24" x2="65.84" y2="242.95" xlink:href="#linear-gradient-25"/><linearGradient id="New_Gradient_Swatch_copy_9" x1="62.92" y1="196.58" x2="85.96" y2="196.58" gradientUnits="userSpaceOnUse"><stop offset="0.04" stop-color="#9f19ab"/><stop offset="0.24" stop-color="#ae25b1"/><stop offset="0.65" stop-color="#d744bf"/><stop offset="1" stop-color="#ff63ce"/></linearGradient><linearGradient id="New_Gradient_Swatch_copy_9-2" x1="78.41" y1="191.15" x2="87.7" y2="182.53" xlink:href="#New_Gradient_Swatch_copy_9"/><linearGradient id="linear-gradient-28" x1="83.29" y1="221.23" x2="79.78" y2="216.11" xlink:href="#linear-gradient-25"/><linearGradient id="New_Gradient_Swatch_copy_9-3" x1="78.34" y1="203.94" x2="82.66" y2="193.51" xlink:href="#New_Gradient_Swatch_copy_9"/><linearGradient id="New_Gradient_Swatch_copy_9-4" x1="69.53" y1="198.15" x2="84.97" y2="199.29" xlink:href="#New_Gradient_Swatch_copy_9"/><linearGradient id="linear-gradient-29" x1="69.6" y1="174.47" x2="86.19" y2="174.47" gradientUnits="userSpaceOnUse"><stop offset="0.04" stop-color="#602213"/><stop offset="0.57" stop-color="#6d310e"/><stop offset="1" stop-color="#7a4108"/></linearGradient><radialGradient id="radial-gradient-7" cx="109.27" cy="156.44" r="3.64" xlink:href="#radial-gradient"/><radialGradient id="radial-gradient-8" cx="107.36" cy="156.21" r="3.18" xlink:href="#radial-gradient"/><radialGradient id="radial-gradient-9" cx="112.41" cy="156.72" r="6.17" xlink:href="#radial-gradient"/><radialGradient id="radial-gradient-10" cx="108.42" cy="156.15" r="3.49" xlink:href="#radial-gradient"/><linearGradient id="linear-gradient-30" x1="150.26" y1="178.59" x2="145.5" y2="174.9" xlink:href="#linear-gradient-25"/><linearGradient id="linear-gradient-31" x1="7589.19" y1="175.46" x2="7599.79" y2="175.46" gradientTransform="matrix(-1, 0, 0, 1, 7719.27, 0)" xlink:href="#linear-gradient-25"/><linearGradient id="linear-gradient-32" x1="116.44" y1="152.32" x2="147.8" y2="152.32" gradientUnits="userSpaceOnUse"><stop offset="0.04" stop-color="#9d9eb3"/><stop offset="0.58" stop-color="#d4d1d8"/><stop offset="1" stop-color="#eeebf2"/></linearGradient><radialGradient id="radial-gradient-11" cx="95.47" cy="148.59" r="12.28" xlink:href="#radial-gradient"/><linearGradient id="New_Gradient_Swatch_copy_7" x1="125.76" y1="142.73" x2="100.34" y2="110.52" gradientUnits="userSpaceOnUse"><stop offset="0.04" stop-color="#138bbd"/><stop offset="0.23" stop-color="#169ac7"/><stop offset="0.59" stop-color="#1fc3df"/><stop offset="1" stop-color="#2af6ff"/></linearGradient><radialGradient id="radial-gradient-12" cx="129.92" cy="117.67" r="10.9" xlink:href="#radial-gradient"/><linearGradient id="linear-gradient-33" x1="116.45" y1="119.96" x2="121.56" y2="122.1" gradientUnits="userSpaceOnUse"><stop offset="0.04" stop-color="#9d9eb3"/><stop offset="0.58" stop-color="#d4d1d8"/><stop offset="1" stop-color="#fff"/></linearGradient><radialGradient id="radial-gradient-13" cx="136.7" cy="144.56" r="9.82" xlink:href="#radial-gradient"/><radialGradient id="radial-gradient-14" cx="114.67" cy="116.99" r="8.35" xlink:href="#radial-gradient"/><linearGradient id="linear-gradient-34" x1="126.68" y1="114.41" x2="111.43" y2="112.62" xlink:href="#linear-gradient-29"/><linearGradient id="linear-gradient-35" x1="141.5" y1="128.16" x2="135.06" y2="132.62" xlink:href="#linear-gradient-33"/><linearGradient id="New_Gradient_Swatch_copy_7-2" x1="151.36" y1="122.97" x2="120.74" y2="140.69" xlink:href="#New_Gradient_Swatch_copy_7"/><radialGradient id="radial-gradient-15" cx="106.71" cy="152.47" r="3.01" xlink:href="#radial-gradient"/><radialGradient id="radial-gradient-16" cx="100.81" cy="150.42" r="1.86" xlink:href="#radial-gradient"/><radialGradient id="radial-gradient-17" cx="100.81" cy="150.42" r="1.86" xlink:href="#radial-gradient"/><linearGradient id="linear-gradient-36" x1="208.78" y1="82.45" x2="204.89" y2="88.09" xlink:href="#linear-gradient-25"/><linearGradient id="linear-gradient-37" x1="228.22" y1="85.73" x2="221.66" y2="86.39" xlink:href="#linear-gradient-25"/><linearGradient id="linear-gradient-38" x1="211.4" y1="84.63" x2="187.81" y2="53.92" gradientUnits="userSpaceOnUse"><stop offset="0.04" stop-color="#6b24d6"/><stop offset="0.29" stop-color="#7733dc"/><stop offset="0.79" stop-color="#975ced"/><stop offset="1" stop-color="#a56ef4"/></linearGradient><radialGradient id="radial-gradient-18" cx="228.32" cy="17.4" r="14.86" xlink:href="#radial-gradient"/><radialGradient id="radial-gradient-19" cx="178.73" cy="17.54" r="24.35" xlink:href="#radial-gradient"/><linearGradient id="linear-gradient-39" x1="189.57" y1="63.92" x2="208.32" y2="21.6" xlink:href="#linear-gradient-32"/><radialGradient id="radial-gradient-20" cx="196.63" cy="7.27" r="7.12" xlink:href="#radial-gradient"/><radialGradient id="radial-gradient-21" cx="225.78" cy="15.31" r="3.63" xlink:href="#radial-gradient"/><linearGradient id="linear-gradient-40" x1="200.6" y1="50.19" x2="201.95" y2="41.53" xlink:href="#linear-gradient-32"/><radialGradient id="radial-gradient-22" cx="201.03" cy="21.23" r="13.85" xlink:href="#radial-gradient"/><linearGradient id="linear-gradient-41" x1="203.72" y1="28.17" x2="211.04" y2="28.17" xlink:href="#linear-gradient-29"/><radialGradient id="radial-gradient-23" cx="199.82" cy="7.68" r="23.55" xlink:href="#radial-gradient"/><linearGradient id="linear-gradient-42" x1="-2750.27" y1="36.15" x2="-2667.17" y2="-10.61" gradientTransform="matrix(1.06, 0, 0.04, 0.95, 3093.69, 142.61)" gradientUnits="userSpaceOnUse"><stop offset="0.02" stop-color="#55507a"/><stop offset="0.47" stop-color="#9d9eb3"/><stop offset="1" stop-color="#d4d1d8"/></linearGradient><linearGradient id="linear-gradient-43" x1="-2744.53" y1="31.97" x2="-2719.73" y2="23.47" xlink:href="#linear-gradient-42"/><linearGradient id="linear-gradient-44" x1="8637.39" y1="-397.28" x2="8634.87" y2="-392.47" gradientTransform="matrix(-1.14, 0.02, 0.34, 0.87, 10123.7, 266.19)" xlink:href="#linear-gradient-42"/><linearGradient id="linear-gradient-45" x1="8652.9" y1="-344.44" x2="8658.97" y2="-346.26" gradientTransform="matrix(-1.14, 0.02, 0.34, 0.87, 10123.7, 266.19)" xlink:href="#linear-gradient-42"/><linearGradient id="linear-gradient-46" x1="8616.04" y1="-339.43" x2="8682.14" y2="-362.08" gradientTransform="matrix(-1.14, 0.02, 0.34, 0.87, 10123.7, 266.19)" xlink:href="#linear-gradient-42"/><linearGradient id="linear-gradient-47" x1="8647.71" y1="-356.52" x2="8644.5" y2="-350.4" gradientTransform="matrix(-1.14, 0.02, 0.34, 0.87, 10123.7, 266.19)" xlink:href="#linear-gradient-42"/><linearGradient id="linear-gradient-48" x1="8652.9" y1="-333.95" x2="8658.97" y2="-335.77" gradientTransform="matrix(-1.14, 0.02, 0.34, 0.87, 10123.7, 266.19)" xlink:href="#linear-gradient-42"/><linearGradient id="linear-gradient-49" x1="8616.04" y1="-328.94" x2="8682.14" y2="-351.58" gradientTransform="matrix(-1.14, 0.02, 0.34, 0.87, 10123.7, 266.19)" xlink:href="#linear-gradient-42"/><linearGradient id="linear-gradient-50" x1="8647.71" y1="-346.03" x2="8644.5" y2="-339.91" gradientTransform="matrix(-1.14, 0.02, 0.34, 0.87, 10123.7, 266.19)" xlink:href="#linear-gradient-42"/><linearGradient id="linear-gradient-51" x1="8652.9" y1="-323.41" x2="8658.97" y2="-325.23" gradientTransform="matrix(-1.14, 0.02, 0.34, 0.87, 10123.7, 266.19)" xlink:href="#linear-gradient-42"/><linearGradient id="linear-gradient-52" x1="8616.04" y1="-318.4" x2="8682.14" y2="-341.05" gradientTransform="matrix(-1.14, 0.02, 0.34, 0.87, 10123.7, 266.19)" xlink:href="#linear-gradient-42"/><linearGradient id="linear-gradient-53" x1="8647.71" y1="-335.49" x2="8644.5" y2="-329.37" gradientTransform="matrix(-1.14, 0.02, 0.34, 0.87, 10123.7, 266.19)" xlink:href="#linear-gradient-42"/><linearGradient id="linear-gradient-54" x1="8652.9" y1="-312.92" x2="8658.97" y2="-314.74" gradientTransform="matrix(-1.14, 0.02, 0.34, 0.87, 10123.7, 266.19)" xlink:href="#linear-gradient-42"/><linearGradient id="linear-gradient-55" x1="8616.04" y1="-307.91" x2="8682.14" y2="-330.56" gradientTransform="matrix(-1.14, 0.02, 0.34, 0.87, 10123.7, 266.19)" xlink:href="#linear-gradient-42"/><linearGradient id="linear-gradient-56" x1="8647.71" y1="-325" x2="8644.5" y2="-318.88" gradientTransform="matrix(-1.14, 0.02, 0.34, 0.87, 10123.7, 266.19)" xlink:href="#linear-gradient-42"/><linearGradient id="linear-gradient-57" x1="8653.09" y1="-375.95" x2="8659.17" y2="-377.77" gradientTransform="matrix(-1.14, 0.02, 0.34, 0.87, 10123.7, 266.19)" xlink:href="#linear-gradient-42"/><linearGradient id="linear-gradient-58" x1="8616.23" y1="-370.94" x2="8682.33" y2="-393.59" gradientTransform="matrix(-1.14, 0.02, 0.34, 0.87, 10123.7, 266.19)" xlink:href="#linear-gradient-42"/><linearGradient id="linear-gradient-59" x1="8647.9" y1="-388.03" x2="8644.69" y2="-381.91" gradientTransform="matrix(-1.14, 0.02, 0.34, 0.87, 10123.7, 266.19)" xlink:href="#linear-gradient-42"/><linearGradient id="linear-gradient-60" x1="8653.09" y1="-365.46" x2="8659.17" y2="-367.28" gradientTransform="matrix(-1.14, 0.02, 0.34, 0.87, 10123.7, 266.19)" xlink:href="#linear-gradient-42"/><linearGradient id="linear-gradient-61" x1="8616.23" y1="-360.45" x2="8682.33" y2="-383.09" gradientTransform="matrix(-1.14, 0.02, 0.34, 0.87, 10123.7, 266.19)" xlink:href="#linear-gradient-42"/><linearGradient id="linear-gradient-62" x1="8647.9" y1="-377.54" x2="8644.69" y2="-371.42" gradientTransform="matrix(-1.14, 0.02, 0.34, 0.87, 10123.7, 266.19)" xlink:href="#linear-gradient-42"/><linearGradient id="linear-gradient-63" x1="8653.09" y1="-354.92" x2="8659.17" y2="-356.74" gradientTransform="matrix(-1.14, 0.02, 0.34, 0.87, 10123.7, 266.19)" xlink:href="#linear-gradient-42"/><linearGradient id="linear-gradient-64" x1="8616.23" y1="-349.91" x2="8682.33" y2="-372.56" gradientTransform="matrix(-1.14, 0.02, 0.34, 0.87, 10123.7, 266.19)" xlink:href="#linear-gradient-42"/><linearGradient id="linear-gradient-65" x1="8647.9" y1="-367" x2="8644.69" y2="-360.88" gradientTransform="matrix(-1.14, 0.02, 0.34, 0.87, 10123.7, 266.19)" xlink:href="#linear-gradient-42"/><linearGradient id="linear-gradient-66" x1="8652.9" y1="-302.47" x2="8658.97" y2="-304.29" gradientTransform="matrix(-1.14, 0.02, 0.34, 0.87, 10123.7, 266.19)" xlink:href="#linear-gradient-42"/><linearGradient id="linear-gradient-67" x1="8616.04" y1="-297.46" x2="8682.14" y2="-320.11" gradientTransform="matrix(-1.14, 0.02, 0.34, 0.87, 10123.7, 266.19)" xlink:href="#linear-gradient-42"/><linearGradient id="linear-gradient-68" x1="8647.71" y1="-314.55" x2="8644.5" y2="-308.43" gradientTransform="matrix(-1.14, 0.02, 0.34, 0.87, 10123.7, 266.19)" xlink:href="#linear-gradient-42"/><linearGradient id="linear-gradient-69" x1="8652.9" y1="-291.98" x2="8658.97" y2="-293.8" gradientTransform="matrix(-1.14, 0.02, 0.34, 0.87, 10123.7, 266.19)" xlink:href="#linear-gradient-42"/><linearGradient id="linear-gradient-70" x1="-2766.83" y1="84.64" x2="-2681.29" y2="55.33" xlink:href="#linear-gradient-42"/><linearGradient id="linear-gradient-71" x1="8647.71" y1="-304.06" x2="8644.5" y2="-297.94" gradientTransform="matrix(-1.14, 0.02, 0.34, 0.87, 10123.7, 266.19)" xlink:href="#linear-gradient-42"/><linearGradient id="linear-gradient-72" x1="8624.14" y1="-314.86" x2="8816.19" y2="-422.92" gradientTransform="matrix(-1.14, 0.02, 0.34, 0.87, 10123.7, 266.19)" xlink:href="#linear-gradient-42"/><linearGradient id="linear-gradient-73" x1="-2762.36" y1="42.75" x2="-2737.56" y2="34.25" xlink:href="#linear-gradient-42"/><linearGradient id="linear-gradient-74" x1="8656.92" y1="-386.07" x2="8654.4" y2="-381.26" gradientTransform="matrix(-1.14, 0.02, 0.34, 0.87, 10123.7, 266.19)" xlink:href="#linear-gradient-42"/><linearGradient id="linear-gradient-75" x1="5269.57" y1="158.59" x2="5323.36" y2="128.33" gradientTransform="matrix(-1.06, 0, -0.04, 0.95, 5591.66, 142.61)" xlink:href="#linear-gradient-42"/><linearGradient id="linear-gradient-76" x1="5271.95" y1="156.62" x2="5293.27" y2="149.32" gradientTransform="matrix(-1.06, 0, -0.04, 0.95, 5591.66, 142.61)" xlink:href="#linear-gradient-42"/><linearGradient id="linear-gradient-77" x1="1269.74" y1="-67.68" x2="1267.22" y2="-62.87" gradientTransform="matrix(1.14, 0.02, -0.34, 0.87, -1438.35, 266.19)" xlink:href="#linear-gradient-42"/><linearGradient id="linear-gradient-78" x1="1285.7" y1="-43.69" x2="1291.78" y2="-45.51" gradientTransform="matrix(1.14, 0.02, -0.34, 0.87, -1438.35, 266.19)" xlink:href="#linear-gradient-42"/><linearGradient id="linear-gradient-79" x1="1248.85" y1="-38.68" x2="1314.95" y2="-61.33" gradientTransform="matrix(1.14, 0.02, -0.34, 0.87, -1438.35, 266.19)" xlink:href="#linear-gradient-42"/><linearGradient id="linear-gradient-80" x1="1280.52" y1="-55.77" x2="1277.31" y2="-49.65" gradientTransform="matrix(1.14, 0.02, -0.34, 0.87, -1438.35, 266.19)" xlink:href="#linear-gradient-42"/><linearGradient id="linear-gradient-81" x1="1285.7" y1="-33.16" x2="1291.78" y2="-34.98" gradientTransform="matrix(1.14, 0.02, -0.34, 0.87, -1438.35, 266.19)" xlink:href="#linear-gradient-42"/><linearGradient id="linear-gradient-82" x1="1248.85" y1="-28.15" x2="1314.95" y2="-50.8" gradientTransform="matrix(1.14, 0.02, -0.34, 0.87, -1438.35, 266.19)" xlink:href="#linear-gradient-42"/><linearGradient id="linear-gradient-83" x1="1280.52" y1="-45.24" x2="1277.31" y2="-39.12" gradientTransform="matrix(1.14, 0.02, -0.34, 0.87, -1438.35, 266.19)" xlink:href="#linear-gradient-42"/><linearGradient id="linear-gradient-84" x1="1285.7" y1="-22.67" x2="1291.78" y2="-24.49" gradientTransform="matrix(1.14, 0.02, -0.34, 0.87, -1438.35, 266.19)" xlink:href="#linear-gradient-42"/><linearGradient id="linear-gradient-85" x1="1248.85" y1="-17.66" x2="1314.95" y2="-40.3" gradientTransform="matrix(1.14, 0.02, -0.34, 0.87, -1438.35, 266.19)" xlink:href="#linear-gradient-42"/><linearGradient id="linear-gradient-86" x1="1280.52" y1="-34.75" x2="1277.31" y2="-28.63" gradientTransform="matrix(1.14, 0.02, -0.34, 0.87, -1438.35, 266.19)" xlink:href="#linear-gradient-42"/><linearGradient id="linear-gradient-87" x1="1285.7" y1="-12.22" x2="1291.78" y2="-14.04" gradientTransform="matrix(1.14, 0.02, -0.34, 0.87, -1438.35, 266.19)" xlink:href="#linear-gradient-42"/><linearGradient id="linear-gradient-88" x1="1248.85" y1="-7.21" x2="1314.95" y2="-29.85" gradientTransform="matrix(1.14, 0.02, -0.34, 0.87, -1438.35, 266.19)" xlink:href="#linear-gradient-42"/><linearGradient id="linear-gradient-89" x1="1280.52" y1="-24.3" x2="1277.31" y2="-18.18" gradientTransform="matrix(1.14, 0.02, -0.34, 0.87, -1438.35, 266.19)" xlink:href="#linear-gradient-42"/><linearGradient id="linear-gradient-90" x1="1285.7" y1="-1.72" x2="1291.78" y2="-3.54" gradientTransform="matrix(1.14, 0.02, -0.34, 0.87, -1438.35, 266.19)" xlink:href="#linear-gradient-42"/><linearGradient id="linear-gradient-91" x1="5242.36" y1="191.62" x2="5327.9" y2="162.32" gradientTransform="matrix(-1.06, 0, -0.04, 0.95, 5591.66, 142.61)" xlink:href="#linear-gradient-42"/><linearGradient id="linear-gradient-92" x1="1280.52" y1="-13.8" x2="1277.31" y2="-7.68" gradientTransform="matrix(1.14, 0.02, -0.34, 0.87, -1438.35, 266.19)" xlink:href="#linear-gradient-42"/><linearGradient id="linear-gradient-93" x1="1269.11" y1="-11.91" x2="1385.67" y2="-77.49" gradientTransform="matrix(1.14, 0.02, -0.34, 0.87, -1438.35, 266.19)" xlink:href="#linear-gradient-42"/><linearGradient id="linear-gradient-94" x1="5254.12" y1="167.4" x2="5275.43" y2="160.1" gradientTransform="matrix(-1.06, 0, -0.04, 0.95, 5591.66, 142.61)" xlink:href="#linear-gradient-42"/><linearGradient id="linear-gradient-95" x1="1289.28" y1="-56.47" x2="1286.75" y2="-51.66" gradientTransform="matrix(1.14, 0.02, -0.34, 0.87, -1438.35, 266.19)" xlink:href="#linear-gradient-42"/><radialGradient id="radial-gradient-24" cx="204.24" cy="166.73" r="3.55" gradientUnits="userSpaceOnUse"><stop offset="0" stop-color="#bcbec0"/><stop offset="0.57" stop-color="#e5e6e6"/><stop offset="1" stop-color="#fff"/></radialGradient><radialGradient id="radial-gradient-25" cx="204.83" cy="186.69" r="8" gradientUnits="userSpaceOnUse"><stop offset="0.03" stop-color="#fedfcb"/><stop offset="1" stop-color="#f9b69e"/></radialGradient><radialGradient id="radial-gradient-26" cx="201.34" cy="187.24" r="0.35" xlink:href="#radial-gradient-25"/><radialGradient id="radial-gradient-27" cx="202.39" cy="187.35" r="0.29" xlink:href="#radial-gradient-25"/><radialGradient id="radial-gradient-28" cx="206.22" cy="185.15" r="1.53" xlink:href="#radial-gradient-25"/><radialGradient id="radial-gradient-29" cx="200.42" cy="188.48" r="0" xlink:href="#radial-gradient-25"/><radialGradient id="radial-gradient-30" cx="202.73" cy="186.61" r="0.33" xlink:href="#radial-gradient-25"/><linearGradient id="New_Gradient_Swatch_copy_7-3" x1="-236.71" y1="720.07" x2="-231.66" y2="720.37" gradientTransform="translate(518.21 -523.02) rotate(5.83)" xlink:href="#New_Gradient_Swatch_copy_7"/><radialGradient id="radial-gradient-31" cx="2199.98" cy="10940.88" r="18.59" gradientTransform="translate(11350.07 902.97) rotate(105.16)" xlink:href="#radial-gradient"/><linearGradient id="linear-gradient-96" x1="-236.6" y1="721.29" x2="-238.16" y2="719.88" gradientTransform="translate(518.21 -523.02) rotate(5.83)" xlink:href="#linear-gradient-32"/><linearGradient id="New_Gradient_Swatch_copy_7-4" x1="-234.93" y1="731.75" x2="-228.68" y2="722.06" gradientTransform="translate(518.21 -523.02) rotate(5.83)" xlink:href="#New_Gradient_Swatch_copy_7"/><linearGradient id="linear-gradient-97" x1="-2738.11" y1="-1204.33" x2="-2736.01" y2="-1210.49" gradientTransform="matrix(0.97, -0.25, 0.25, 0.97, 3168.34, 721.21)" xlink:href="#linear-gradient-25"/><linearGradient id="New_Gradient_Swatch_copy_7-5" x1="11061.8" y1="1059.51" x2="11076.29" y2="1059.51" gradientTransform="matrix(-1, -0.1, -0.1, 1, 11337.63, 210.2)" xlink:href="#New_Gradient_Swatch_copy_7"/><linearGradient id="linear-gradient-98" x1="-10429.64" y1="-1406.36" x2="-10429.64" y2="-1411.81" gradientTransform="translate(10729.34 -500.18) rotate(-11.67)" xlink:href="#linear-gradient-25"/><linearGradient id="New_Gradient_Swatch_copy_7-6" x1="-10434.02" y1="-1422.07" x2="-10424.36" y2="-1422.07" gradientTransform="translate(10729.34 -500.18) rotate(-11.67)" xlink:href="#New_Gradient_Swatch_copy_7"/><radialGradient id="radial-gradient-32" cx="-10546.67" cy="-1353.39" r="7.31" gradientTransform="translate(10825.89 -471.75) rotate(-10.77)" xlink:href="#radial-gradient-25"/><linearGradient id="linear-gradient-99" x1="-10540.67" y1="-1349.32" x2="-10545.61" y2="-1358.04" gradientTransform="translate(10825.89 -471.75) rotate(-10.77)" xlink:href="#linear-gradient-29"/><linearGradient id="linear-gradient-100" x1="-10543.03" y1="-1345.09" x2="-10544.57" y2="-1347.81" gradientTransform="translate(10825.89 -471.75) rotate(-10.77)" xlink:href="#linear-gradient-32"/><linearGradient id="New_Gradient_Swatch_copy_7-7" x1="-10551.98" y1="-1331.16" x2="-10533.64" y2="-1331.16" gradientTransform="translate(10825.89 -471.75) rotate(-10.77)" xlink:href="#New_Gradient_Swatch_copy_7"/><linearGradient id="New_Gradient_Swatch_copy_7-8" x1="-10547.26" y1="-1337.75" x2="-10542.74" y2="-1349.35" gradientTransform="translate(10825.89 -471.75) rotate(-10.77)" xlink:href="#New_Gradient_Swatch_copy_7"/><radialGradient id="radial-gradient-33" cx="-10543.84" cy="-1344.67" r="4.5" gradientTransform="translate(10825.89 -471.75) rotate(-10.77)" xlink:href="#White_Black_2"/><linearGradient id="New_Gradient_Swatch_copy_7-9" x1="20229.66" y1="195.85" x2="20238.56" y2="181.91" gradientTransform="matrix(-1, 0, 0, 1, 20444.1, 0)" xlink:href="#New_Gradient_Swatch_copy_7"/></defs><g class="cls-7"><g id="Layer_1" data-name="Layer 1"><g class="cls-8"><g class="cls-9"><g class="cls-10"><polygon class="cls-11" points="201.02 64.69 233.94 83.72 201.02 102.74 168.1 83.71 201.02 64.69"/><polygon class="cls-12" points="201.18 101.43 233.94 83.72 201.02 102.74 168.1 83.71 201.18 101.43"/><polygon class="cls-13" points="233.97 181.8 201.03 200.82 201.03 102.73 233.97 83.71 233.97 181.8"/><polygon class="cls-14" points="201.04 200.82 168.1 181.8 168.1 83.71 201.04 102.73 201.04 200.82"/></g></g><g class="cls-15"><g class="cls-10"><polygon class="cls-16" points="162.74 102.52 195.66 121.55 162.74 140.56 129.81 121.53 162.74 102.52"/><polygon class="cls-17" points="162.9 139.25 195.66 121.55 162.74 140.56 129.81 121.53 162.9 139.25"/><polygon class="cls-18" points="195.69 204.07 162.75 223.09 162.75 140.55 195.69 121.53 195.69 204.07"/><polygon class="cls-19" points="162.75 223.09 129.81 204.07 129.81 121.53 162.75 140.55 162.75 223.09"/></g></g><g class="cls-20"><g class="cls-10"><polygon class="cls-21" points="124.76 140.75 157.68 159.78 124.76 178.79 91.84 159.76 124.76 140.75"/><polygon class="cls-22" points="124.92 177.49 157.68 159.78 124.76 178.79 91.84 159.76 124.92 177.49"/><polygon class="cls-23" points="157.71 226.34 124.77 245.36 124.77 178.78 157.71 159.76 157.71 226.34"/><polygon class="cls-24" points="124.78 245.36 91.84 226.34 91.84 159.76 124.78 178.78 124.78 245.36"/></g></g><g class="cls-25"><g class="cls-10"><polygon class="cls-26" points="86.48 178.57 119.4 197.6 86.48 216.62 53.55 197.59 86.48 178.57"/><polygon class="cls-27" points="86.64 215.31 119.4 197.6 86.48 216.62 53.55 197.59 86.64 215.31"/><polygon class="cls-28" points="119.43 248.61 86.49 267.63 86.49 216.61 119.43 197.59 119.43 248.61"/><polygon class="cls-29" points="86.49 267.63 53.55 248.61 53.55 197.59 86.49 216.61 86.49 267.63"/></g></g><g class="cls-30"><g class="cls-10"><polygon class="cls-31" points="47.59 216.38 80.51 235.41 47.58 254.43 14.66 235.4 47.59 216.38"/><polygon class="cls-32" points="47.74 253.12 80.51 235.41 47.58 254.43 14.66 235.4 47.74 253.12"/><polygon class="cls-33" points="80.53 271.18 47.59 290.2 47.59 254.42 80.53 235.4 80.53 271.18"/><polygon class="cls-34" points="47.6 290.2 14.66 271.18 14.66 235.4 47.6 254.42 47.6 290.2"/></g></g></g><path class="cls-35" d="M54.65,249.3c3.72,2.59,9.66-1.42,12.81-3.15s11.18-5.39,11.18-5.39l-7.11-5S49,245.33,54.65,249.3Z" transform="translate(-12.24 -13.24)"/><path class="cls-36" d="M86.17,219.61c6.71.41-1.22,3.35-1.63,7.83s-.3,8.13-3.35,8.13-1.73-10.73,0-14.49C82.51,218.39,84.89,219.53,86.17,219.61Z" transform="translate(-12.24 -13.24)"/><path class="cls-37" d="M75.47,175.27a3.54,3.54,0,0,0-4.1.24c-2.1,1.62-5,7-6.4,8.4s-2,2.63-2.86,5.25-2.15,7.78-2.82,8.5a19.92,19.92,0,0,0-2.09,2.52,6.48,6.48,0,0,0-.61,2.88c.22.61.5-.25.61-.71a6,6,0,0,1,.47-1.45,7.37,7.37,0,0,1-.4,1.39,3.24,3.24,0,0,0,0,2.45c.26.29.35-1,.66-2.07s.48-1.26.58-1.26a14.29,14.29,0,0,1-.59,2,5.65,5.65,0,0,0-.16,1.47c0,.49.43,1.05.6.17a13.41,13.41,0,0,1,.34-1.56c.12-.43.57-1.68.72-1.61s-.19.92-.36,1.52a7.74,7.74,0,0,0-.33,1.71c-.06.6.42,1.18.59.21a14.46,14.46,0,0,1,.5-1.9c.15-.52.62-1.25.93-1.3s.13.25.1.87.48,1.36.72,1.33.14-.62.09-1.17.45-1.46.38-2.29-.26-1.39-.24-1.67a38.66,38.66,0,0,1,2.08-5.57,51.83,51.83,0,0,0,2.32-6c0-.31,5-4.92,5-4.92l11.77,3s2.16-3.78,4.16-4.71c1.77-.82,6.48-1.49,7.51-1.78s3.51-.73,4.23-1.95,4.72-10.94,5-11.56,2.35-2.91,2.58-3.36a4.58,4.58,0,0,0,.14-3,2.38,2.38,0,0,0-1.72-1.85c-.76-.1-1.24,1.71-1.55,2.45s-1.21,1.4-1.21.73,0-1.74-.32-2-.57.26-.57.88a17.68,17.68,0,0,0,0,3.19,4.49,4.49,0,0,1,.19,2.24c-.22.54-2.19,3.81-3.1,5.67s-2.27,4.25-2.44,4.47A22.81,22.81,0,0,1,91,176a73.2,73.2,0,0,0-7.59.86c-1.24.3-2,.69-1.75-.45a2.8,2.8,0,0,1,1.82-2.17c.74-.12,1.17-.67,1.53-1.82s1-4.87.43-6.42a4.93,4.93,0,0,0-7-1.93c-3.08,2-3,4.84-2.29,6.59s1.26,3.86.88,4.53S76.48,175.65,75.47,175.27Z" transform="translate(-12.24 -13.24)"/><path class="cls-38" d="M77.52,182.12l-4.77-2.91s-5.81,6.1-6.57,6.82-1.53,3.86-1.81,4.29-1.53,4.19-2,5.48a17.07,17.07,0,0,0-.57,3.39,38.66,38.66,0,0,1,2.08-5.57,51.83,51.83,0,0,0,2.32-6c0-.31,5-4.92,5-4.92l5.93,1.5Z" transform="translate(-12.24 -13.24)"/><path class="cls-39" d="M97.55,171.46c-.83,1.61-1.79,3.29-1.89,3.43a26,26,0,0,1-4.69.84h-.13a71.17,71.17,0,0,0-7.5.86l-.5.13a4,4,0,0,1-.86.18.21.21,0,0,1-.13,0s-.06-.09,0-.46c0-.12.07-.24.11-.36l-5-1.72a1.36,1.36,0,0,1-.09.7c-.19.34-.27.34-.34.34a2.48,2.48,0,0,1-.67-.21l-.24-.09a3.9,3.9,0,0,0-2-.59,3.73,3.73,0,0,0-2.33.84c-1.26,1-2.76,3.23-4.09,5.22a24,24,0,0,1-2.33,3.2c-1.48,1.43-2.07,2.74-2.92,5.34-.26.79-.55,1.8-.86,2.86l3.3,1.32a51.9,51.9,0,0,0,2.12-5.61c.18-.33,3-3,4.82-4.74l11.81,3,.09-.15s2.15-3.73,4.06-4.62a31.44,31.44,0,0,1,5.68-1.4c.82-.16,1.47-.28,1.79-.37l.53-.13c1.26-.32,3.18-.8,3.84-1.92.28-.49,1.07-2.27,1.93-4.29Z" transform="translate(-12.24 -13.24)"/><path class="cls-40" d="M77.52,182.12l-4.77-2.91s-5.81,6.1-6.57,6.82-2,5.88-2.43,7.1l.58.14a51.9,51.9,0,0,0,2.12-5.61c.18-.33,3-3,4.82-4.74l5.82,1.48Z" transform="translate(-12.24 -13.24)"/><path class="cls-41" d="M74.18,203.77c2.15-.67,6.11-2.2,6.11-2.2a21.63,21.63,0,0,0-.52,6.92,54.07,54.07,0,0,1,0,9c-.26,2-1,4.87.44,5s2.74-1.36,4.24-1.27S87,220,85.8,219.6s-2.83-.28-2.61-2.74,1.4-8.91,2.07-12.34,1.4-5.89.76-7.42-2.32-1.24-3.5-1.3-8.94-.1-8.94-.1Z" transform="translate(-12.24 -13.24)"/><path class="cls-42" d="M81.24,221.08s-.22-10-.15-12.08,1.65-9.08,1.65-9.08l-8.67,2.27.11,1.58c2.15-.67,6.11-2.2,6.11-2.2a21.63,21.63,0,0,0-.52,6.92,54.07,54.07,0,0,1,0,9c-.26,2-1,4.87.44,5a2.92,2.92,0,0,0,1.31-.28Z" transform="translate(-12.24 -13.24)"/><path class="cls-43" d="M78.05,198.8s-.29,9.17-1.67,14A65,65,0,0,1,72,223.72c-.62,1.1-1.67,2.82-2.87,4.68s-7.3,8.93-8.07,10.84a16.9,16.9,0,0,0-1.28,5.11c0,.2,1.36,1.64,1.16,1.63-.88-.06-4.7-3.27-4.32-4.16.48-1.1.86-1.48,1.82-3.49s4.58-10.79,6.25-12.94,3.25-3.39,3.58-4,1-12.13.86-12.65-1.29-1.05-1.38-3.78,2.72-7,2.72-7Z" transform="translate(-12.24 -13.24)"/><path class="cls-44" d="M70.51,197.94s-2.82,4.25-2.72,7,1.24,3.25,1.38,3.78-.52,12-.86,12.65-1.91,1.91-3.58,4-5.3,10.94-6.25,12.94-1.34,2.39-1.82,3.49c-.18.42.59,1.36,1.54,2.25a14.64,14.64,0,0,1,.54-3.81c.77-2.1,4.15-8,5.77-10.72s4-7,4.58-7.58,1.71-3.43,2.33-8.53c.59-4.88-.72-9.62.91-15.28Z" transform="translate(-12.24 -13.24)"/><path class="cls-45" d="M79.32,219.88a2.66,2.66,0,0,0-.17,1.81c.31.82,1.14,2,1.36,2.49a6.46,6.46,0,0,1,.31,1l.88,0,.69-.58s-.69-2.17.08-2.45,2.92.53,4,.14,2.58-1.19,2.12-2.34-2-1.1-2.67-1.05a10,10,0,0,0-1.31.19s.28.84-1.15,1.19S79.32,219.88,79.32,219.88Z" transform="translate(-12.24 -13.24)"/><path class="cls-46" d="M56.91,240.47a3.79,3.79,0,0,0-1.31,1.86c-.17,1-.24,2.69-.36,3.36s-.31,1.5-.31,1.5l.94.33.73-.14.33-1.7a2.63,2.63,0,0,0,1.1,1.46A3.16,3.16,0,0,0,61,248c.86-.36,1.53-1.6.67-2.2s-1.5-1-1.5-1-.12,1.05-.36.21-.67-3.13-1.27-3.72A3.52,3.52,0,0,0,56.91,240.47Z" transform="translate(-12.24 -13.24)"/><path class="cls-47" d="M58,247.14A3.16,3.16,0,0,0,61,248a1.77,1.77,0,0,0,.6-.42,1.71,1.71,0,0,1-1.26.08A3,3,0,0,1,58.77,246c-.34-1.22-.41-2.15-.89-2.15s-.75,1.25-.94,1.91A2.8,2.8,0,0,0,58,247.14Z" transform="translate(-12.24 -13.24)"/><path class="cls-48" d="M79.45,195l4.93.57A14.81,14.81,0,0,0,83,198.85c-.71,2.29-3.68,6.64-3.63,8.07A10.33,10.33,0,0,1,76,214.29c-4.17,3.56-13,3.75-13,3.75s-.12-13.4,2.34-18.9c1.47-3.3,4.82-5.83,5.15-7.74a67.74,67.74,0,0,0,.25-7.64s1.52-6,2.52-7.2a4.43,4.43,0,0,1,2.39-1.43l1.14.52s-2.48,2.91-1,3.68S81.54,177,81.54,177l.53.05s-3,3.88-1.25,6.27S86,182.12,86,182.12s-.22,3.94-1.42,5.32-2.91,2-3.58,3.49S79.45,195,79.45,195Z" transform="translate(-12.24 -13.24)"/><path class="cls-49" d="M82.74,187.41a5.66,5.66,0,0,1-1.11,2.52c.83-.87,2-1.45,2.91-2.49,1.2-1.38,1.42-5.32,1.42-5.32A11.82,11.82,0,0,1,84.2,186C83.74,186.67,82.78,187.18,82.74,187.41Z" transform="translate(-12.24 -13.24)"/><path class="cls-50" d="M87.65,221.82c-1.29.73-4.55.07-5.63.16s-.35,3.15-.35,3.15l0,.09.68-.57s-.69-2.17.08-2.45,2.92.53,4,.14a5.77,5.77,0,0,0,1.39-.67Z" transform="translate(-12.24 -13.24)"/><path class="cls-51" d="M84.38,195.56,79.45,195a17.42,17.42,0,0,0-.75,5.54c.12,2.3.65,4.42.77,5.84.47-1.78,2.91-5.47,3.55-7.52A14.81,14.81,0,0,1,84.38,195.56Z" transform="translate(-12.24 -13.24)"/><path class="cls-52" d="M66.85,204.56c-.2-5.71,3.71-10.29,4.48-12.29s.38-6.86,2-11.06L72.45,178a57.14,57.14,0,0,0-1.79,5.78,67.74,67.74,0,0,1-.25,7.64c-.33,1.91-3.68,4.44-5.15,7.74-2.46,5.5-2.34,18.9-2.34,18.9a35.77,35.77,0,0,0,4.82-.52C67.49,214.7,67,208.78,66.85,204.56Z" transform="translate(-12.24 -13.24)"/><path class="cls-53" d="M82.85,171.4c.1,1,.89,3,.1,4.93a15.44,15.44,0,0,0-1.14,5.36c0,1.61,2.1,3.62,2.1,3.62a14.81,14.81,0,0,1-8.55.14c-5.09-1.42-6.1-4.46-5.67-5.92.23-.76,3.51-4.2,4.33-8.74.63-3.52,2.1-7,5.61-7.69,3.7-.74,5.45,1.21,5.93,2a2.78,2.78,0,0,1,.18,3.22C84.88,169.54,82.42,167.43,82.85,171.4Z" transform="translate(-12.24 -13.24)"/><path class="cls-54" d="M105.66,157.76a10.73,10.73,0,0,1,.43,1.53,13.21,13.21,0,0,1,0,1.79,5,5,0,0,0,.26-1.69,4.7,4.7,0,0,0-.22-1.14A2.34,2.34,0,0,0,105.66,157.76Z" transform="translate(-12.24 -13.24)"/><path class="cls-55" d="M104.49,157.5a6.33,6.33,0,0,1,.29,1.11,11.64,11.64,0,0,1,0,1.79,4.74,4.74,0,0,0,.26-1.69,4.62,4.62,0,0,0-.27-1.31A.56.56,0,0,0,104.49,157.5Z" transform="translate(-12.24 -13.24)"/><path class="cls-56" d="M103.3,159.84c-.24.57-.83,1.09-1.09,1v0a1.26,1.26,0,0,0,1.55-.6,9.9,9.9,0,0,0,.36-2.33A15.13,15.13,0,0,0,103.3,159.84Z" transform="translate(-12.24 -13.24)"/><path class="cls-57" d="M105.41,158.85a13,13,0,0,1,0,1.78,4.28,4.28,0,0,0,0-3.07,1.51,1.51,0,0,0-.33-.13A9,9,0,0,1,105.41,158.85Z" transform="translate(-12.24 -13.24)"/><path class="cls-58" d="M73.19,173.55c-1.27,3.13-3.32,5.38-3.5,6-.43,1.46.58,4.5,5.67,5.92a14.81,14.81,0,0,0,8.55-.14C74.19,183.62,72.69,179.78,73.19,173.55Z" transform="translate(-12.24 -13.24)"/><path class="cls-58" d="M82.35,163c1.49,1.35,1.76,3.37,1.27,5.83.69-.22,1.65.11,2.12-.58a2.78,2.78,0,0,0-.18-3.22A4.82,4.82,0,0,0,82.35,163Z" transform="translate(-12.24 -13.24)"/><path class="cls-59" d="M152.41,177.77c-4.54,5.21-13.72,4.88-23.48,4.42-5.54-.26-12.66-2.93-9.77-5.79,5.46-5.41,12.89-2.55,18.34-1.55S157.6,171.82,152.41,177.77Z" transform="translate(-12.24 -13.24)"/><path class="cls-60" d="M146.58,174.71c-.48.72-2.28,2.75-3,3.54s-1,2.26.83,2.52a5,5,0,0,0,4.34-1.57c.72-.92.64-2,1.46-2.07a3.47,3.47,0,0,0,.76-.28,10.54,10.54,0,0,0,1.09-.91s-.37-1.44-.51-1.73a10.11,10.11,0,0,0-.88-1.45l-3.32.87S146.84,174.32,146.58,174.71Z" transform="translate(-12.24 -13.24)"/><path class="cls-61" d="M144.74,177c-.88.9-2.52,2.79-.23,2.87a5.11,5.11,0,0,0,4.19-2c.46-.64.74-1.14,1.3-1.4a16.9,16.9,0,0,0,1.88-1.22,8.8,8.8,0,0,0-.38-1.42,8.18,8.18,0,0,1-.36-.79l-4.22.94A34,34,0,0,1,144.74,177Z" transform="translate(-12.24 -13.24)"/><path class="cls-60" d="M129.92,172.52l.46,2.61a15,15,0,0,1-1.89,1c-.59.19-1.56-.19-2.05.43a9.12,9.12,0,0,1-4.13,2.54c-1.77.35-3-.22-3-.73s.43-1.35,2-2.4a11.86,11.86,0,0,0,3-3.62Z" transform="translate(-12.24 -13.24)"/><path class="cls-62" d="M130.06,174.19c-.25.3-3.22,1-3.71,1.62a12.23,12.23,0,0,1-4.73,2.66c-1.28.22-2.26-.42-2.13-.91.17-.7,1.34-1.35,2.37-2.13a11.88,11.88,0,0,0,2.13-2.59l6.09-.43Z" transform="translate(-12.24 -13.24)"/><path class="cls-63" d="M126.38,132.48a51.65,51.65,0,0,0-3.47,8c-.72,2.81-3,10.36-2.62,13.27.3,2.46,1.47,4.6,2,7.55.44,2.34,1.32,9.86.81,11.33-.28.82.61,1.17,3.25.92,2-.19,3.92.37,3.92-.28s-.6-9.41-1.22-13a34.33,34.33,0,0,0-1.91-6.71l6.09-12.78a103.89,103.89,0,0,0-1.47,11.47c-.3,5.24-1.25,8.1-.17,10s8.85,7.22,10.7,9.1a16.52,16.52,0,0,1,2.72,4.37c.56.46,2.09,0,3.38-.35a7,7,0,0,0,3.18-1.71c.13-.49-1.13-2.94-2.62-4.88a61.81,61.81,0,0,0-6.68-7c-1.4-1.14-3.84-2.9-3.84-2.9s3.65-9.52,4.07-12.8,1.87-8,1.38-12.09a6.35,6.35,0,0,0-3.44-5.31s-5.28,4.13-7.7,4.66S126.38,132.48,126.38,132.48Z" transform="translate(-12.24 -13.24)"/><path class="cls-58" d="M127.17,153.52l6.09-12.78-.32-5a9.84,9.84,0,0,0-1.78,3c-1.43,3.15-6.86,12.87-6.45,14.8s2.84,5.39,3.77,19.93c1.06.06,1.82.13,1.82-.28,0-.66-.6-9.41-1.22-13A34.33,34.33,0,0,0,127.17,153.52Z" transform="translate(-12.24 -13.24)"/><path class="cls-58" d="M149.4,175.06a6,6,0,0,0,2.2-1.39c.13-.49-1.13-2.94-2.62-4.88a61.81,61.81,0,0,0-6.68-7c-1.4-1.14-3.84-2.9-3.84-2.9s3.65-9.52,4.07-12.8,1.87-8,1.38-12.09a7,7,0,0,0-1.84-4.12l-4.1,2.47a86.89,86.89,0,0,1,.82,11.34c-.15,8.18-4.12,14.69-3,16.62S145.65,165.31,149.4,175.06Z" transform="translate(-12.24 -13.24)"/><path class="cls-64" d="M103.75,143.88a19.6,19.6,0,0,1-1.87,3.71c-.46.5-2.5,2.56-2.6,3.47a9.18,9.18,0,0,0,1.25,4.23c.52.44,1.06,1.05,1.48,1s.81-.2.81-.2a4.07,4.07,0,0,0,1.25-.19c.44-.2.44-.67.17-.72a4.39,4.39,0,0,1-1.1-.29c-.35-.17-1.11-1.75-1.11-1.75l.2-.27s.37,1.55.91,1.65.22-1.52.24-1.77a17.81,17.81,0,0,1,.79-3.66c.34-.49,4.62-6,6.14-9.12S103.75,143.88,103.75,143.88Z" transform="translate(-12.24 -13.24)"/><path class="cls-65" d="M102,146.83l2.91,1.54,1-1.28s3.71-4.24,5.12-7.45S116.75,127,116.75,127a25.39,25.39,0,0,0,5.11,3.83c2.46,1.25,3.55,1.74,3.71,2.23a1.63,1.63,0,0,1-.08,1s4.94,2.72,8.28,1.72a14.43,14.43,0,0,0,8.35-6.49s-4.24-5-6.27-7.56-2.85-3.54-6.45-4.49-13-2.92-15.86.85-2.92,7.24-3.77,10.39-1.18,5.6-2.13,6.84a76.3,76.3,0,0,0-4.78,8.78,8.55,8.55,0,0,0-.36,1.71Z" transform="translate(-12.24 -13.24)"/><path class="cls-66" d="M121.17,115.77c.92,1.18,1.52,2,2.15,2.17,1.07.29,2.48,2.52.08,4.54-2.06,1.73-4.16,1.09-5.67-.65S121.17,115.77,121.17,115.77Z" transform="translate(-12.24 -13.24)"/><path class="cls-67" d="M120.83,118.52c.61,5.6.45,6.09-1,6.43s-3.43-1.71-3.53-4.19S120.59,116.29,120.83,118.52Z" transform="translate(-12.24 -13.24)"/><path class="cls-68" d="M140.08,142.57a10.85,10.85,0,0,1-.54,2.16c-.33.69-1.56,2.58-1.59,2.9s0,1.18,0,1.68-.44,1.5-.15,1.75.76-.89.76-.89-.16,1-.19,1.25a14.27,14.27,0,0,0-.06,1.58c0,.22.39,1.31.72,1.22s.25-.91.2-1.25a16.3,16.3,0,0,1,.51-3,15.35,15.35,0,0,1-.1,1.82,7.57,7.57,0,0,0,.25,1.84c.15.25.46.94.83.83s.11-.89,0-1.11a5.28,5.28,0,0,1-.09-1.51,8.83,8.83,0,0,1,.39-1.9c.12,0-.16,1.33-.14,1.63a4.59,4.59,0,0,0,.31,1.45c.19.29.92.6,1,.44s-.32-.93-.34-1a7.8,7.8,0,0,1,0-1.06,8.45,8.45,0,0,1,.27-1.43c.11-.12.06.68.09,1a7.1,7.1,0,0,0,.12,1.13c.09.26.41.75.63.74s0-.92,0-1.34.18-1.73.26-2.69a19.72,19.72,0,0,0,0-3.08c-.09-.8-.28-1.56-.25-1.88s.2-1.17.2-1.17Z" transform="translate(-12.24 -13.24)"/><path class="cls-69" d="M113.34,111.61c-1.3,1.08-2.62,2.62-1.11,6.46s3,5.89,4.42,5.57a9.67,9.67,0,0,0,4.16-3.25c.36-.72,1.8-5.11.17-7.89S115.57,109.78,113.34,111.61Z" transform="translate(-12.24 -13.24)"/><path class="cls-70" d="M111.34,115.38c.29.91,2.79,1.18,4.49.46s2.92,1.38,2.92,1.38l.82-.33s.49-2,1.27-1.87.92,1.15.82,1.77.53-.23.53-1-.65-6.22-5.47-6.22A5.07,5.07,0,0,0,111.34,115.38Z" transform="translate(-12.24 -13.24)"/><path class="cls-71" d="M138.46,133.54c-.15,5.49,1.12,11.67,1.79,11,1.22-1.19,2.48-15.22,2.48-15.22s-4.85-5-6.88-7.6l-.57-.72c-3.64-.85-6.74-.77-7.08,1.84-.23,1.8,1.22,3.36,5.15,5.45C135.81,129.63,137.57,132.33,138.46,133.54Z" transform="translate(-12.24 -13.24)"/><path class="cls-72" d="M130.72,119.12c-2.43.33-4.45,4.92.24,6.82a49.94,49.94,0,0,1,9.1,5.11,25.12,25.12,0,0,1,.07,3.67c-.1,2.23-.82,5.67-.69,6.3s.3,1.21.3,1.21l-.13,1,3.5.52.23-1a21.49,21.49,0,0,0,.88-2.59c.46-1.6,1.54-9,1.28-10.58s-3.86-4.39-6.65-6.32S134.74,118.58,130.72,119.12Z" transform="translate(-12.24 -13.24)"/><path class="cls-58" d="M113.1,132.66c-1.1,3.43-1.14,2.82-1.52,3.55a72.75,72.75,0,0,0-4.27,6.82c-.79,1.64-2,3.7-2.86,5.08l.5.26,1-1.28s3.71-4.24,5.12-7.45S116.75,127,116.75,127l-.94-1.41S114.21,129.23,113.1,132.66Z" transform="translate(-12.24 -13.24)"/><path class="cls-58" d="M118.75,117.22l.82-.33s.49-2,1.27-1.87.92,1.15.82,1.77.53-.23.53-1-.45-4.47-3.33-5.77c1,1.19,1.3,2.3.84,4.66A25.13,25.13,0,0,1,118.75,117.22Z" transform="translate(-12.24 -13.24)"/><path class="cls-73" d="M102.23,152.85l0-1.29s-.69.53-.61,1.09a9.53,9.53,0,0,0,1.37,2.19l-.94-1.72Z" transform="translate(-12.24 -13.24)"/><path class="cls-74" d="M103.53,156a3.19,3.19,0,0,1-1-.28,13.13,13.13,0,0,1-1.35-1.68,19.13,19.13,0,0,0,1.09,1.78,4,4,0,0,0,.59.24Z" transform="translate(-12.24 -13.24)"/><path class="cls-75" d="M101.83,156.29s-.87-.61-1-.92-.43-1-.43-1l.23,1.06.86.74Z" transform="translate(-12.24 -13.24)"/><path class="cls-60" d="M203.92,80.79a2.46,2.46,0,0,1,1.52-1.45,1.58,1.58,0,0,1,2.13.92,11.86,11.86,0,0,1,.58,2.08l-.19.44a15.74,15.74,0,0,0,.64,2.63,8.09,8.09,0,0,1,1.23,4.77,2,2,0,0,1-3.58.93c-1.21-1.7-1.38-5-1.38-5Z" transform="translate(-12.24 -13.24)"/><path class="cls-76" d="M205,79.6c.72-.26,1.7.09,2.27,2.67s1.47,4.5,1.75,5.78.86,3.62-1.63,3.55c-1.66,0-2.32-3-2.51-5.68S203.13,80.26,205,79.6Z" transform="translate(-12.24 -13.24)"/><path class="cls-60" d="M222.33,82.13s.07-1.7,1-2,2.2,0,2.48.68a31.18,31.18,0,0,1,.71,3.69c.42,2.09,1,4.53,0,6.39-.59,1.1-3.37,1.77-4,.07s.25-4.26.29-5.86S222.36,83.12,222.33,82.13Z" transform="translate(-12.24 -13.24)"/><path class="cls-77" d="M223.61,80.64c1.45-.53,2.13.09,2.43,2.41s1.05,4.74.43,7.22c-.3,1.24-3.08,2.46-3.79.38-.8-2.37.62-4.23.31-6.65S222.69,81,223.61,80.64Z" transform="translate(-12.24 -13.24)"/><path class="cls-78" d="M194.42,59.16l14.88-1.63s1.67,4.33,2.52,6.71,3.52,6.85,4.4,9.48,2.45,7.67,2.45,7.67,1,0,2.45.17,3.13-1.35,4.19,0,1.31,5.22.53,5.86-2,.19-3.26.21c-1.54,0-3,1.38-4.65,1.42s-2.24-1-4.62-4.08-10.08-13.92-10.08-13.92l-2.1,9.66a18.84,18.84,0,0,0,3.48-1.08c.71-.46,1.6.44,2,2.6s-.25,4.12-1.28,4.3-2.31-.36-3.27.18-3.87,2.69-5.61,2.09-1.81-2.06-2.38-4.86a40.21,40.21,0,0,1-1-12.93C193.61,64.52,194.42,59.16,194.42,59.16Z" transform="translate(-12.24 -13.24)"/><path class="cls-58" d="M226.3,85.73a7.58,7.58,0,0,0-1-4.13c-1.06-1.39-2.73.1-4.19,0s-2.45-.17-2.45-.17-1.56-5-2.45-7.67-3.55-7.1-4.4-9.48-2.52-6.71-2.52-6.71l-3.36.37a32.58,32.58,0,0,0,1.19,6.62C208,67,217.5,84.33,217.93,85.18s-.07,2.35,2.34,1.78C222.3,86.48,224.83,85.46,226.3,85.73Z" transform="translate(-12.24 -13.24)"/><path class="cls-58" d="M201.88,66.86c-.28-1.42-.57-4.33-.57-4.33l-1.92-.07a21.3,21.3,0,0,0,.64,4.9,17.13,17.13,0,0,0,1.07,2.34s-1.78,3.48-1.71,6-1,8.73-.85,9.23,2.77-.21,5.19.07c.83.1,1.82.24,2.75.38a5.94,5.94,0,0,0,.16-3.08c-.43-2.16-1.32-3.06-2-2.6a18.84,18.84,0,0,1-3.48,1.08l2.1-9.66A37.52,37.52,0,0,1,201.88,66.86Z" transform="translate(-12.24 -13.24)"/><path class="cls-79" d="M223.22,23.23c-.05-1.21-.39-2.73-.71-2.91s-1.25.18-1.6-.18-1.17-1.52-1.07-1.88a7.39,7.39,0,0,1,2.77-1.35A3.06,3.06,0,0,1,225,19a14.57,14.57,0,0,1,.6,3.78c0,1-.32,2.73-.35,4.22s.14,8.1-1.18,9.23-7.59,4.16-8.76,5.5S213.45,44,213.45,44l-1.06-7.56L217.68,35c1.31-.36,3.12-.92,3.12-.92a22,22,0,0,1,.82-4.94C222.4,26.36,223.25,24.23,223.22,23.23Z" transform="translate(-12.24 -13.24)"/><path class="cls-80" d="M190.27,18.76c-.18.28-1.21,4.19-2,6.53s-1.6,4.51-1.6,4.51a16.21,16.21,0,0,1,4.08,1.95c1.32,1.07,4.26,1.67,5.83,2.45A14.77,14.77,0,0,1,199,35.66l-7.1,3.26s-5.08-4.22-6.68-5-3.83-2.77-3.58-4,5.93-11.75,6.32-12.18,2.09-3.62,3.12-4.26,2.81.25,3.3.64,2,.46,1.5,1.35a9.45,9.45,0,0,1-3.41,2.45A13.6,13.6,0,0,1,190.27,18.76Z" transform="translate(-12.24 -13.24)"/><path class="cls-81" d="M201.06,35.62A42,42,0,0,1,196,33.74a50.9,50.9,0,0,1-6-2.8,15.35,15.35,0,0,0-3-1.1s2.48-6.86,2.8-8.31l.32-1.46.07-.88-2.76-1.46-.39,1a2.28,2.28,0,0,0-1.18,1.1c-.39.82-4,8.62-4.43,9.48-.79,1.42,0,2.91,1.7,3.8s7,6.25,7.63,8.23,1.92,4.19,2.13,6.32,1,6.82.71,9.09-.42,3.23,0,3.73.61.5.61.5L194,62.07a40.86,40.86,0,0,0,9.45.36A10.63,10.63,0,0,0,210,59.27l-.35-1.1a3.08,3.08,0,0,0,.25-1.49c0-1-.14-5.33,1.1-7.64s4.73-6.65,6.29-7.5,7.34-3.69,8.05-5.4S226,27.54,226,26a12.62,12.62,0,0,0-.23-2.24v-.54h-2.52l-.25.68a2.07,2.07,0,0,0-.46.74,25.55,25.55,0,0,0-1.36,4.82c-.14,1.29-.53,4.27-.53,4.27L216.76,35a26.13,26.13,0,0,1-5.83,1.24A31,31,0,0,1,201.06,35.62Z" transform="translate(-12.24 -13.24)"/><path class="cls-58" d="M226,26a12.62,12.62,0,0,0-.23-2.24v-.54h-.89l-.2,1a42.24,42.24,0,0,0-.38,6.25c.09,3,.33,4.78.09,5.3s-10.23,4.7-11.62,5.21c-3.71,1.37-7.12,8.24-7.1,12.85a48.15,48.15,0,0,0,.8,7.78A10.06,10.06,0,0,0,210,59.27l-.35-1.1a3.08,3.08,0,0,0,.25-1.49c0-1-.14-5.33,1.1-7.64s4.73-6.65,6.29-7.5,7.34-3.69,8.05-5.4S226,27.54,226,26Z" transform="translate(-12.24 -13.24)"/><path class="cls-82" d="M191.58,15.56c0-.49.25-1.27.39-1.24s1.64.75,1.6.92-.46.71-.67.61-.82-.71-1-.53Z" transform="translate(-12.24 -13.24)"/><path class="cls-83" d="M222.57,18.35s-1.42.18-1.47.33a8,8,0,0,0,1.84.33Z" transform="translate(-12.24 -13.24)"/><path class="cls-58" d="M190.23,37.11s-3-2.84-4.54-4c-1.22-.94-3.34-1.28-4.42-1.89a3.67,3.67,0,0,0,1.9,2c1.55.8,6.09,5.34,7.36,7.64C190.31,39.06,190.23,37.11,190.23,37.11Z" transform="translate(-12.24 -13.24)"/><path class="cls-84" d="M199.79,35.37c-1.14,0-3.48,1.39-2,3s7.32,2.06,9.55-.25-3.26-2-3.26-2Z" transform="translate(-12.24 -13.24)"/><path class="cls-85" d="M204.58,23.84c-1.59.55-2.81,2.77-3.41,4.43a12.26,12.26,0,0,0-.57,3.66c-.07.57-.42,2.7-.92,3.2s-1.78,1.45-1.74,2.09,1.38,1.85,3.76,1.92,5.36-1,5.68-1.85-1.2-1.35-.78-2.52c.33-.9,2.88-2.24,3.2-3.58a9.35,9.35,0,0,0-.18-5.29A4.31,4.31,0,0,0,204.58,23.84Z" transform="translate(-12.24 -13.24)"/><path class="cls-86" d="M203.73,24.12c-.1.09,3.18-.89,5.07,1.63a3.07,3.07,0,0,1,.5,2.74c-.24.62-.82,1.84-.82,1.84l.25.18s1.1-.39,1,.32-1.53,2-1.7,2.24a4.6,4.6,0,0,0,2.41-2.63c1.11-2.77.67-5.61-1.95-6.71C205.71,22.56,204.05,23.8,203.73,24.12Z" transform="translate(-12.24 -13.24)"/><path class="cls-87" d="M202.48,36.16c-1.61-.3-1.81-5.54-1.63-5,.39,1.07,3.91,2.81,5.18,1.46C206.4,32.19,203.65,36.37,202.48,36.16Z" transform="translate(-12.24 -13.24)"/><path class="cls-59" d="M224.42,97.45c0,2.82-4.44,5.1-9.92,5.1s-9.92-2.28-9.92-5.1,4.44-5.1,9.92-5.1S224.42,94.64,224.42,97.45Z" transform="translate(-12.24 -13.24)"/><path class="cls-88" d="M219.14,246.41,235,237.08a2.87,2.87,0,0,0,0-5l-29.51-14.47-22,12.43,32.72,16.31A2.87,2.87,0,0,0,219.14,246.41Z" transform="translate(-12.24 -13.24)"/><path class="cls-89" d="M206.38,218.3l-21.62,12.23,31.62,15.81a2.91,2.91,0,0,0,2.83,0l15.62-9.16a2.8,2.8,0,0,0,.17-4.8Z" transform="translate(-12.24 -13.24)"/><path class="cls-90" d="M207.24,218.93,186,231l30.53,15.29a2.9,2.9,0,0,0,2.77-.08l15.35-9c1.72-1,2.05-3.65.34-4.66Z" transform="translate(-12.24 -13.24)"/><path class="cls-91" d="M208.09,219.57l-20.88,11.85,29.43,14.79a3,3,0,0,0,2.72-.13l15.08-8.82c1.63-.94,2.12-3.56.49-4.51Z" transform="translate(-12.24 -13.24)"/><path class="cls-92" d="M209,220.21l-20.51,11.66,28.34,14.27a3,3,0,0,0,2.65-.17l14.82-8.65c1.54-.89,2.18-3.46.65-4.36Z" transform="translate(-12.24 -13.24)"/><path class="cls-93" d="M209.8,220.85l-20.13,11.47,27.24,13.76a3,3,0,0,0,2.6-.22l14.55-8.48c1.45-.84,2.25-3.37.81-4.22Z" transform="translate(-12.24 -13.24)"/><path class="cls-94" d="M210.66,221.49,190.9,232.76,217,246a3.05,3.05,0,0,0,2.54-.26l14.29-8.31c1.35-.78,2.31-3.28,1-4.07Z" transform="translate(-12.24 -13.24)"/><path class="cls-95" d="M211.51,222.13l-19.38,11.08,25,12.74a3.2,3.2,0,0,0,2.49-.31l14-8.14c1.27-.73,2.39-3.18,1.13-3.92Z" transform="translate(-12.24 -13.24)"/><path class="cls-96" d="M212.37,222.76l-19,10.9,23.94,12.22a3.24,3.24,0,0,0,2.43-.35l13.75-8c1.18-.68,2.45-3.09,1.28-3.78Z" transform="translate(-12.24 -13.24)"/><path class="cls-97" d="M213.22,223.4l-18.64,10.7,22.85,11.72a3.36,3.36,0,0,0,2.37-.4l13.49-7.8c1.09-.63,2.52-3,1.44-3.63Z" transform="translate(-12.24 -13.24)"/><path class="cls-98" d="M214.07,224l-18.26,10.51,21.76,11.2c.46.28,1.84-.17,2.31-.44l13.22-7.63c1-.58,2.59-2.9,1.59-3.48Z" transform="translate(-12.24 -13.24)"/><path class="cls-99" d="M214.93,224.68,197,235l20.66,10.7c.42.25,1.83-.24,2.25-.49l13-7.46c.91-.52,2.66-2.81,1.76-3.34Z" transform="translate(-12.24 -13.24)"/><path class="cls-100" d="M215.78,225.32l-17.51,10.12,19.56,10.18c.38.23,1.81-.31,2.2-.53l12.68-7.29c.82-.47,2.73-2.71,1.92-3.19Z" transform="translate(-12.24 -13.24)"/><path class="cls-101" d="M216.64,226l-17.14,9.94L218,245.56c.34.2,1.8-.38,2.14-.58l12.42-7.12c.73-.42,2.79-2.62,2.07-3.05Z" transform="translate(-12.24 -13.24)"/><path class="cls-102" d="M217.49,226.59l-16.76,9.74,17.36,9.16c.3.18,1.79-.45,2.09-.62l12.15-7c.63-.37,2.86-2.53,2.23-2.9Z" transform="translate(-12.24 -13.24)"/><path class="cls-103" d="M218.35,227.23,202,236.78l16.26,8.65c.26.15,1.77-.52,2-.67L232.14,238c.54-.32,2.92-2.43,2.38-2.75Z" transform="translate(-12.24 -13.24)"/><path class="cls-104" d="M219.2,227.87l-16,9.36,15.18,8.13c.21.13,1.75-.59,2-.71L231.94,238c.46-.26,3-2.34,2.55-2.61Z" transform="translate(-12.24 -13.24)"/><path class="cls-105" d="M220.06,228.51l-15.65,9.16,14.08,7.63a7.61,7.61,0,0,0,1.91-.76l11.35-6.44c.37-.21,3.07-2.25,2.7-2.46Z" transform="translate(-12.24 -13.24)"/><path class="cls-106" d="M220.91,229.15l-15.27,9,13,7.12a10.62,10.62,0,0,0,1.85-.81l11.09-6.27c.27-.16,3.13-2.15,2.86-2.31Z" transform="translate(-12.24 -13.24)"/><path class="cls-107" d="M221.77,229.78l-14.9,8.78,11.88,6.61a14.62,14.62,0,0,0,1.8-.85l10.82-6.1c.18-.11,3.2-2.06,3-2.17Z" transform="translate(-12.24 -13.24)"/><path class="cls-108" d="M222.62,230.42,208.1,239l10.78,6.1c.05,0,1.7-.88,1.74-.9l10.56-5.94c.09-.05,3.26-2,3.17-2Z" transform="translate(-12.24 -13.24)"/><polygon class="cls-109" points="206.77 231.8 222.08 223.22 211.24 217.82 197.09 226.21 206.77 231.8"/><path class="cls-88" d="M183.85,160.06l7.84-4.82,7.85-4.82a2.87,2.87,0,0,1,4.38,2.31l1.13,20.77,1.13,20.78-10.65,6.79-10.65,6.79-1.19-22.62-1.19-22.62A2.89,2.89,0,0,1,183.85,160.06Z" transform="translate(-12.24 -13.24)"/><path class="cls-89" d="M191.8,155.48l7.69-4.71a2.81,2.81,0,0,1,4.31,2.13l.57,10.12.56,10.13.87,19.91-10.27,6.55-10.48,6.67-.61-11-.61-11-.9-21.67a2.8,2.8,0,0,1,1.31-2.45Z" transform="translate(-12.24 -13.24)"/><path class="cls-90" d="M191.91,155.72l7.52-4.59c1.69-1.06,4.16,0,4.24,1.94l.57,9.86.57,9.86.61,19.05-9.89,6.3-10.31,6.55L184.6,194,184,183.24l-.63-20.72a2.7,2.7,0,0,1,1.28-2.34Z" transform="translate(-12.24 -13.24)"/><path class="cls-91" d="M192,156l7.36-4.48c1.6-1,4.09-.12,4.17,1.76l.57,9.6.57,9.59.34,18.19-9.51,6-10.13,6.44-.64-10.44-.63-10.43-.34-19.76a2.62,2.62,0,0,1,1.25-2.24Z" transform="translate(-12.24 -13.24)"/><path class="cls-92" d="M192.13,156.2l7.2-4.37c1.51-.94,4-.2,4.1,1.58l.57,9.33.57,9.34.08,17.32-9.13,5.81-10,6.31-.65-10.14-.65-10.14,0-18.81a2.56,2.56,0,0,1,1.21-2.14Z" transform="translate(-12.24 -13.24)"/><path class="cls-93" d="M192.24,156.43l7-4.24c1.42-.89,3.95-.29,4,1.38l.58,9.08.57,9.07-.18,16.46-8.75,5.56-9.79,6.2-.66-9.85-.66-9.85.22-17.86a2.51,2.51,0,0,1,1.18-2Z" transform="translate(-12.24 -13.24)"/><path class="cls-94" d="M192.35,156.67l6.87-4.13c1.33-.83,3.89-.36,4,1.2l.57,8.81.58,8.82L203.89,187l-8.37,5.32-9.62,6.07-.67-9.56-.68-9.55.51-16.9a2.39,2.39,0,0,1,1.15-1.93Z" transform="translate(-12.24 -13.24)"/><path class="cls-95" d="M192.46,156.91l6.71-4c1.24-.77,3.82-.44,3.88,1l.58,8.55.58,8.55-.71,14.73-8,5.07-9.45,6-.69-9.27-.69-9.27.79-15.94a2.33,2.33,0,0,1,1.12-1.82Z" transform="translate(-12.24 -13.24)"/><path class="cls-96" d="M192.57,157.15l6.55-3.9c1.15-.72,3.75-.53,3.81.83l.58,8.29.58,8.28-1,13.88-7.6,4.82-9.28,5.83-.7-9-.7-9,1.07-15a2.26,2.26,0,0,1,1.08-1.72Z" transform="translate(-12.24 -13.24)"/><path class="cls-97" d="M192.69,157.39l6.37-3.79c1.07-.66,3.69-.6,3.74.65l.59,8,.58,8-1.23,13-7.22,4.57-9.1,5.71-.72-8.68-.72-8.68,1.36-14a2.17,2.17,0,0,1,1-1.61Z" transform="translate(-12.24 -13.24)"/><path class="cls-98" d="M192.8,157.63,199,154c1-.6,3.62-.68,3.67.47l.58,7.76.59,7.76-1.49,12.15-6.85,4.33L186.59,192l-.73-8.39-.73-8.39,1.63-13.08a2.16,2.16,0,0,1,1-1.51Z" transform="translate(-12.24 -13.24)"/><path class="cls-99" d="M192.91,157.86l6.05-3.55c.89-.56,3.55-.77,3.59.28l.59,7.5.59,7.49L202,180.87,195.51,185l-8.75,5.47-.75-8.09-.74-8.1,1.92-12.12a2.1,2.1,0,0,1,1-1.41Z" transform="translate(-12.24 -13.24)"/><path class="cls-100" d="M193,158.1l5.89-3.44c.79-.5,3.48-.84,3.52.1L203,162l.59,7.24-2,10.42-6.08,3.83-8.58,5.36-.76-7.81-.76-7.8,2.2-11.17c0-.44.58-1.06,1-1.3Z" transform="translate(-12.24 -13.24)"/><path class="cls-101" d="M193.13,158.34l5.72-3.33c.71-.44,3.42-.92,3.45-.09l.6,7,.59,7-2.28,9.56-5.7,3.59-8.41,5.23-.77-7.51-.77-7.51L188,162c0-.39.59-1,.92-1.19Z" transform="translate(-12.24 -13.24)"/><path class="cls-102" d="M193.24,158.58l5.56-3.21c.62-.39,3.35-1,3.38-.28l.59,6.71.6,6.71-2.54,8.7-5.32,3.34-8.24,5.12-.78-7.22-.79-7.22,2.77-9.26c0-.35.59-.91.88-1.09Z" transform="translate(-12.24 -13.24)"/><path class="cls-103" d="M193.35,158.82l5.4-3.1c.53-.33,3.28-1.08,3.31-.46l.59,6.45.6,6.45-2.8,7.83-4.94,3.1-8.07,5-.8-6.93-.8-6.92,3-8.31c0-.29.61-.83.86-1Z" transform="translate(-12.24 -13.24)"/><path class="cls-104" d="M193.46,159.06l5.23-3c.45-.28,3.22-1.17,3.24-.65l.6,6.19.6,6.18-3.07,7-4.55,2.85-7.9,4.88-.81-6.64-.81-6.63,3.33-7.36c0-.24.61-.75.82-.88Z" transform="translate(-12.24 -13.24)"/><path class="cls-105" d="M193.57,159.3l5.07-2.87c.36-.22,3.15-1.25,3.17-.83l.6,5.92.6,5.93-3.33,6.11-4.18,2.6-7.72,4.75-.82-6.34-.83-6.34,3.62-6.4c0-.2.61-.67.78-.78Z" transform="translate(-12.24 -13.24)"/><path class="cls-106" d="M193.68,159.53l4.91-2.75c.27-.16,3.08-1.32,3.09-1l.61,5.66.6,5.66-3.59,5.25-3.8,2.35L188,179.32l-.84-6-.85-6.05,3.9-5.45c0-.15.63-.59.76-.67Z" transform="translate(-12.24 -13.24)"/><path class="cls-107" d="M193.79,159.77l4.75-2.63c.17-.12,3-1.41,3-1.2l.6,5.4.61,5.39-3.85,4.39-3.42,2.1-7.37,4.52-.86-5.76-.85-5.76,4.18-4.49c0-.09.63-.51.72-.56Z" transform="translate(-12.24 -13.24)"/><path class="cls-108" d="M193.9,160l4.58-2.52a30.5,30.5,0,0,1,3-1.38l.61,5.13.61,5.14-4.12,3.52-3,1.86-7.2,4.39-.87-5.46-.87-5.47,4.46-3.53a4.87,4.87,0,0,1,.69-.46Z" transform="translate(-12.24 -13.24)"/><polygon class="cls-109" points="174.46 150.98 181.77 147 189.07 143.03 189.68 147.9 190.29 152.78 183.26 157.05 176.23 161.32 175.35 156.15 174.46 150.98"/><polygon class="cls-110" points="190.96 138.28 223.63 222.76 220.6 221.67 187.94 137.19 190.96 138.28"/><polygon class="cls-111" points="190.96 138.28 223.62 222.76 225.75 221.56 193.08 137.09 190.96 138.28"/><polygon class="cls-112" points="193.08 137.09 190.96 138.28 187.94 137.19 190.07 135.99 193.08 137.09"/><polygon class="cls-113" points="187.05 179.14 187.93 181.42 184.91 180.34 184.03 178.06 187.05 179.14"/><polygon class="cls-114" points="187.05 179.14 187.93 181.42 204.19 172.34 203.31 170.07 187.05 179.14"/><polygon class="cls-115" points="203.31 170.07 187.05 179.14 184.03 178.06 200.3 168.97 203.31 170.07"/><polygon class="cls-116" points="190.59 188.31 191.47 190.59 188.44 189.5 187.56 187.22 190.59 188.31"/><polygon class="cls-117" points="190.58 188.31 191.46 190.59 207.72 181.51 206.85 179.24 190.58 188.31"/><polygon class="cls-118" points="206.85 179.24 190.58 188.31 187.56 187.22 203.84 178.14 206.85 179.24"/><polygon class="cls-119" points="194.14 197.51 195.02 199.79 192 198.71 191.12 196.43 194.14 197.51"/><polygon class="cls-120" points="194.13 197.51 195.01 199.79 211.28 190.72 210.4 188.44 194.13 197.51"/><polygon class="cls-121" points="210.4 188.44 194.13 197.51 191.12 196.43 207.39 187.35 210.4 188.44"/><polygon class="cls-122" points="197.68 206.68 198.56 208.96 195.53 207.87 194.65 205.59 197.68 206.68"/><polygon class="cls-123" points="197.67 206.68 198.55 208.96 214.81 199.88 213.93 197.61 197.67 206.68"/><polygon class="cls-124" points="213.93 197.61 197.67 206.68 194.65 205.59 210.93 196.51 213.93 197.61"/><polygon class="cls-125" points="176.21 151.62 177.09 153.9 174.07 152.81 173.19 150.53 176.21 151.62"/><polygon class="cls-126" points="176.21 151.62 177.09 153.9 193.35 144.82 192.47 142.54 176.21 151.62"/><polygon class="cls-127" points="192.47 142.54 176.21 151.62 173.19 150.53 189.46 141.45 192.47 142.54"/><polygon class="cls-128" points="179.75 160.78 180.63 163.06 177.6 161.98 176.72 159.69 179.75 160.78"/><polygon class="cls-129" points="179.74 160.78 180.62 163.06 196.88 153.99 196.01 151.71 179.74 160.78"/><polygon class="cls-130" points="196.01 151.71 179.74 160.78 176.72 159.69 193 150.62 196.01 151.71"/><polygon class="cls-131" points="183.3 169.99 184.18 172.27 181.16 171.18 180.28 168.9 183.3 169.99"/><polygon class="cls-132" points="183.29 169.99 184.18 172.27 200.44 163.19 199.56 160.91 183.29 169.99"/><polygon class="cls-133" points="199.56 160.91 183.29 169.99 180.28 168.9 196.55 159.82 199.56 160.91"/><polygon class="cls-134" points="201.2 215.81 202.08 218.09 199.06 217 198.18 214.72 201.2 215.81"/><polygon class="cls-135" points="201.19 215.81 202.07 218.09 218.34 209.01 217.46 206.74 201.19 215.81"/><polygon class="cls-136" points="217.46 206.74 201.19 215.81 198.18 214.72 214.45 205.64 217.46 206.74"/><polygon class="cls-137" points="204.74 224.98 205.62 227.26 202.59 226.17 201.71 223.89 204.74 224.98"/><polygon class="cls-138" points="204.73 224.98 205.61 227.26 221.87 218.18 221 215.91 204.73 224.98"/><polygon class="cls-139" points="221 215.91 204.73 224.98 201.71 223.89 217.99 214.81 221 215.91"/><polygon class="cls-140" points="172.57 148.57 205.24 233.03 202.21 231.94 169.54 147.48 172.57 148.57"/><polygon class="cls-141" points="172.56 148.57 205.23 233.03 207.35 231.83 174.69 147.37 172.56 148.57"/><polygon class="cls-142" points="174.69 147.37 172.56 148.57 169.54 147.48 171.68 146.28 174.69 147.37"/><path class="cls-88" d="M31.09,317.3,15.21,308a2.87,2.87,0,0,1,0-5l21-12.85,22,12.43-12.08,7.34L34,317.29A2.9,2.9,0,0,1,31.09,317.3Z" transform="translate(-12.24 -13.24)"/><path class="cls-89" d="M35.65,290.72l10.81,6.12L57.27,303l-11.84,7.2L33.67,317a2.82,2.82,0,0,1-2.81,0l-3-1.75-12.46-7.31a2.79,2.79,0,0,1-.13-4.78Z" transform="translate(-12.24 -13.24)"/><path class="cls-90" d="M35.14,291.27l10.63,6,10.62,6-11.6,7.05-11.43,6.37a2.8,2.8,0,0,1-2.72-.05l-2.9-1.7-12.12-7.1a2.7,2.7,0,0,1-.22-4.6Z" transform="translate(-12.24 -13.24)"/><path class="cls-91" d="M34.64,291.83l10.44,5.92,10.44,5.93-11.37,6.91-11.1,5.87a2.75,2.75,0,0,1-2.64-.08l-2.82-1.65-11.76-6.88c-1.63-.94-1.95-3.47-.33-4.42Z" transform="translate(-12.24 -13.24)"/><path class="cls-92" d="M34.13,292.38l10.25,5.83L54.64,304,43.51,310.8l-10.77,5.39a2.76,2.76,0,0,1-2.56-.11l-2.73-1.6L16,307.81c-1.54-.89-2-3.35-.44-4.25Z" transform="translate(-12.24 -13.24)"/><path class="cls-93" d="M33.62,292.93l10.07,5.74,10.07,5.73L42.87,311l-10.45,4.9a2.71,2.71,0,0,1-2.47-.15l-2.65-1.54-11.06-6.46c-1.45-.84-2-3.22-.53-4.07Z" transform="translate(-12.24 -13.24)"/><path class="cls-94" d="M33.12,293.49,43,299.13l9.88,5.63-10.64,6.47-10.13,4.41a2.68,2.68,0,0,1-2.38-.17L27.16,314l-10.71-6.25c-1.36-.78-2-3.09-.64-3.89Z" transform="translate(-12.24 -13.24)"/><path class="cls-95" d="M32.61,294l9.69,5.54,9.7,5.55-10.4,6.32-9.8,3.92a2.68,2.68,0,0,1-2.3-.21L27,313.72l-10.36-6c-1.27-.73-2-3-.75-3.71Z" transform="translate(-12.24 -13.24)"/><path class="cls-96" d="M32.11,294.59l9.5,5.45,9.51,5.45L41,311.66l-9.47,3.43a2.69,2.69,0,0,1-2.22-.23l-2.4-1.39-10-5.83c-1.18-.68-2-2.84-.84-3.53Z" transform="translate(-12.24 -13.24)"/><path class="cls-97" d="M31.6,295.15l9.32,5.35,9.32,5.35-9.92,6-9.14,2.94a2.72,2.72,0,0,1-2.14-.27l-2.31-1.34-9.66-5.61c-1.09-.63-2-2.72-.95-3.36Z" transform="translate(-12.24 -13.24)"/><path class="cls-98" d="M31.1,295.7,40.23,301l9.13,5.26-9.68,5.88-8.81,2.46a2.8,2.8,0,0,1-2.06-.3L26.59,313l-9.31-5.4c-1-.58-2.05-2.6-1.06-3.18Z" transform="translate(-12.24 -13.24)"/><path class="cls-99" d="M30.59,296.25l8.94,5.16,8.95,5.16L39,312.3l-8.48,2a2.78,2.78,0,0,1-2-.33l-2.15-1.24-9-5.18c-.9-.53-2.06-2.47-1.16-3Z" transform="translate(-12.24 -13.24)"/><path class="cls-100" d="M30.08,296.81l8.76,5.06,8.76,5.06-9.2,5.59L30.25,314c-.39.22-1.51-.14-1.89-.36l-2.06-1.19-8.61-5c-.82-.47-2.07-2.35-1.26-2.83Z" transform="translate(-12.24 -13.24)"/><path class="cls-101" d="M29.58,297.36l8.57,5,8.57,5-8.95,5.44-7.83,1c-.34.2-1.47-.19-1.81-.39l-2-1.13-8.27-4.76c-.72-.42-2.08-2.23-1.36-2.65Z" transform="translate(-12.24 -13.24)"/><path class="cls-102" d="M29.07,297.91l8.39,4.87,8.38,4.87L37.13,313l-7.51.5c-.29.18-1.42-.25-1.72-.42L26,311.94l-7.91-4.55c-.63-.36-2.1-2.09-1.47-2.47Z" transform="translate(-12.24 -13.24)"/><path class="cls-103" d="M28.57,298.47l8.19,4.77L45,308l-8.47,5.14-7.18,0c-.25.15-1.38-.31-1.63-.46l-1.81-1-7.56-4.34c-.55-.31-2.11-2-1.57-2.29Z" transform="translate(-12.24 -13.24)"/><path class="cls-104" d="M28.06,299l8,4.68,8,4.68-8.23,5L29,312.9c-.21.13-1.34-.36-1.55-.48l-1.73-1-7.21-4.12c-.45-.26-2.12-1.85-1.67-2.11Z" transform="translate(-12.24 -13.24)"/><path class="cls-105" d="M27.56,299.57l7.82,4.59,7.82,4.58-8,4.85-6.52-1c-.17.1-1.3-.42-1.47-.51l-1.64-.94-6.86-3.91c-.36-.21-2.14-1.72-1.78-1.94Z" transform="translate(-12.24 -13.24)"/><path class="cls-106" d="M27.05,300.13l7.64,4.48,7.63,4.49-7.75,4.71-6.19-1.46a5.32,5.32,0,0,1-1.39-.54l-1.55-.88-6.51-3.7c-.28-.16-2.16-1.6-1.88-1.76Z" transform="translate(-12.24 -13.24)"/><path class="cls-107" d="M26.54,300.68,34,305.07l7.45,4.39L33.93,314l-5.86-1.94a7.78,7.78,0,0,1-1.3-.57l-1.48-.84-6.16-3.48c-.18-.11-2.16-1.48-2-1.58Z" transform="translate(-12.24 -13.24)"/><path class="cls-108" d="M26,301.23l7.26,4.3,7.26,4.29-7.26,4.42-5.54-2.43s-1.18-.58-1.22-.61l-1.39-.78-5.81-3.27a22.9,22.9,0,0,1-2.09-1.41Z" transform="translate(-12.24 -13.24)"/><polygon class="cls-109" points="20.42 301.21 12.77 296.92 5.11 292.63 13.29 288.54 20.37 292.74 27.44 296.94 20.42 301.21"/><path class="cls-88" d="M52.66,263.43l-7.85-4.82L37,253.79a2.87,2.87,0,0,0-4.39,2.31L31.39,267,30.19,278l10.65,6.79,10.66,6.79,1.25-12.78L54,266A2.86,2.86,0,0,0,52.66,263.43Z" transform="translate(-12.24 -13.24)"/><path class="cls-89" d="M32.67,256.27l-1.18,10.55L30.3,277.37,40.79,284l10.49,6.66,1.29-12.44,1-12.27a2.84,2.84,0,0,0-1.32-2.46l-7.6-4.66L37,254.15A2.81,2.81,0,0,0,32.67,256.27Z" transform="translate(-12.24 -13.24)"/><path class="cls-90" d="M32.76,256.45l-1.17,10.16-1.17,10.16,10.32,6.51,10.33,6.52,1.33-12.08L53.18,266a2.75,2.75,0,0,0-1.31-2.36l-7.35-4.5L37,254.51C35.32,253.46,32.85,254.46,32.76,256.45Z" transform="translate(-12.24 -13.24)"/><path class="cls-91" d="M32.85,256.63l-1.16,9.77-1.16,9.77,10.16,6.38,10.16,6.37,1.37-11.72L52.77,266a2.69,2.69,0,0,0-1.29-2.26l-7.1-4.34L37,254.87C35.42,253.87,32.93,254.75,32.85,256.63Z" transform="translate(-12.24 -13.24)"/><path class="cls-92" d="M32.94,256.8l-1.15,9.39-1.14,9.38,10,6.24,10,6.23,1.41-11.37.31-10.73a2.66,2.66,0,0,0-1.27-2.17l-6.86-4.18L37,255.23C35.53,254.29,33,255,32.94,256.8Z" transform="translate(-12.24 -13.24)"/><path class="cls-93" d="M33,257l-1.14,9-1.13,9,9.83,6.09,9.84,6.1,1.44-11,.07-10.23a2.56,2.56,0,0,0-1.24-2.06l-6.61-4-7-4.25C35.64,254.71,33.1,255.31,33,257Z" transform="translate(-12.24 -13.24)"/><path class="cls-94" d="M33.12,257.16,32,265.77l-1.13,8.61,9.67,5.95,9.67,6,1.49-10.67-.17-9.71a2.57,2.57,0,0,0-1.22-2l-6.37-3.85L37.07,256C35.74,255.12,33.19,255.59,33.12,257.16Z" transform="translate(-12.24 -13.24)"/><path class="cls-95" d="M33.21,257.33l-1.11,8.23L31,273.78l9.5,5.82L50,285.41l1.52-10.31-.4-9.2a2.51,2.51,0,0,0-1.2-1.87l-6.12-3.7-6.71-4C35.85,255.54,33.27,255.87,33.21,257.33Z" transform="translate(-12.24 -13.24)"/><path class="cls-96" d="M33.3,257.51l-1.1,7.84-1.1,7.83,9.34,5.68,9.35,5.67,1.56-10-.64-8.68a2.5,2.5,0,0,0-1.19-1.78l-5.87-3.53-6.54-3.9C36,256,33.36,256.15,33.3,257.51Z" transform="translate(-12.24 -13.24)"/><path class="cls-97" d="M33.39,257.69l-1.09,7.45-1.09,7.44,9.18,5.54,9.18,5.53,1.6-9.6-.87-8.18a2.47,2.47,0,0,0-1.17-1.67l-5.62-3.38L37.13,257C36.06,256.37,33.44,256.43,33.39,257.69Z" transform="translate(-12.24 -13.24)"/><path class="cls-98" d="M33.48,257.86l-1.08,7.06L31.33,272l9,5.39,9,5.4L51,273.52l-1.12-7.66c0-.54-.68-1.29-1.14-1.57l-5.38-3.22-6.21-3.67C36.17,256.79,33.53,256.71,33.48,257.86Z" transform="translate(-12.24 -13.24)"/><path class="cls-99" d="M33.57,258l-1.07,6.67-1.06,6.68,8.85,5.25,8.86,5.26,1.67-8.9-1.35-7.15c0-.49-.7-1.22-1.12-1.48l-5.13-3.05-6.06-3.56C36.28,257.21,33.61,257,33.57,258Z" transform="translate(-12.24 -13.24)"/><path class="cls-100" d="M33.66,258.22l-1,6.28-1.06,6.29,8.69,5.12L48.93,281l1.72-8.55-1.59-6.63c0-.44-.73-1.15-1.1-1.38l-4.89-2.9-5.89-3.44C36.38,257.62,33.7,257.28,33.66,258.22Z" transform="translate(-12.24 -13.24)"/><path class="cls-101" d="M33.75,258.39l-1,5.9-1,5.9,8.52,5,8.53,5L50.47,272l-1.82-6.12c0-.4-.75-1.08-1.08-1.29l-4.64-2.73-5.73-3.33C36.49,258,33.78,257.56,33.75,258.39Z" transform="translate(-12.24 -13.24)"/><path class="cls-102" d="M33.84,258.57l-1,5.51-1,5.51,8.36,4.84,8.36,4.84,1.8-7.85-2.06-5.61c0-.34-.77-1-1.07-1.18l-4.39-2.57-5.56-3.22C36.6,258.46,33.87,257.84,33.84,258.57Z" transform="translate(-12.24 -13.24)"/><path class="cls-103" d="M33.93,258.75l-1,5.12-1,5.13,8.2,4.69,8.2,4.7,1.83-7.49-2.3-5.1c0-.29-.79-.93-1-1.08l-4.14-2.42-5.4-3.1C36.7,258.87,34,258.12,33.93,258.75Z" transform="translate(-12.24 -13.24)"/><path class="cls-104" d="M34,258.92l-1,4.74-1,4.74L40,273l8,4.56L50,270.38l-2.54-4.59c0-.25-.81-.86-1-1l-3.9-2.25-5.24-3C36.81,259.29,34,258.4,34,258.92Z" transform="translate(-12.24 -13.24)"/><path class="cls-105" d="M34.11,259.1l-1,4.35-1,4.35L40,272.22l7.87,4.41,1.91-6.78L47,265.78c0-.2-.83-.79-1-.89l-3.65-2.1-5.08-2.86C36.92,259.71,34.12,258.68,34.11,259.1Z" transform="translate(-12.24 -13.24)"/><path class="cls-106" d="M34.2,259.28l-1,4-1,4,7.7,4.28,7.71,4.27,2-6.42-3-3.56c0-.15-.86-.72-1-.8L42.2,263l-4.91-2.75C37,260.12,34.21,259,34.2,259.28Z" transform="translate(-12.24 -13.24)"/><path class="cls-107" d="M34.29,259.45l-1,3.58-1,3.57,7.54,4.14,7.55,4.14,2-6.08-3.25-3.05c0-.1-.87-.64-1-.69l-3.16-1.77-4.75-2.64C37.13,260.54,34.29,259.24,34.29,259.45Z" transform="translate(-12.24 -13.24)"/><path class="cls-108" d="M34.38,259.63l-1,3.19-1,3.19,7.38,4,7.38,4,2-5.72-3.48-2.54a9.48,9.48,0,0,0-.94-.6l-2.91-1.61L37.33,261C37.24,261,34.38,259.52,34.38,259.63Z" transform="translate(-12.24 -13.24)"/><polygon class="cls-109" points="36.83 254.51 29.53 250.53 22.22 246.56 20.34 252.16 27.55 256.02 34.77 259.88 36.83 254.51"/><polygon class="cls-143" points="21 243.54 2.11 293.65 5.14 292.56 24.03 242.45 21 243.54"/><polygon class="cls-144" points="21.01 243.54 2.12 293.65 0 292.44 18.89 242.34 21.01 243.54"/><polygon class="cls-145" points="18.89 242.34 21.01 243.54 24.03 242.45 21.89 241.25 18.89 242.34"/><polygon class="cls-146" points="35.15 259.2 34.27 261.48 37.3 260.39 38.18 258.11 35.15 259.2"/><polygon class="cls-147" points="35.16 259.2 34.28 261.48 18.02 252.4 18.9 250.13 35.16 259.2"/><polygon class="cls-148" points="18.9 250.13 35.16 259.2 38.18 258.11 21.91 249.03 18.9 250.13"/><polygon class="cls-149" points="31.6 268.4 30.72 270.68 33.75 269.59 34.63 267.31 31.6 268.4"/><polygon class="cls-150" points="31.61 268.4 30.73 270.68 14.47 261.6 15.35 259.33 31.61 268.4"/><polygon class="cls-151" points="15.35 259.33 31.61 268.4 34.63 267.31 18.36 258.23 15.35 259.33"/><polygon class="cls-152" points="28.07 277.57 27.19 279.85 30.21 278.76 31.09 276.48 28.07 277.57"/><polygon class="cls-153" points="28.07 277.57 27.19 279.85 10.93 270.77 11.81 268.5 28.07 277.57"/><polygon class="cls-154" points="11.81 268.5 28.07 277.57 31.09 276.48 14.82 267.4 11.81 268.5"/><polygon class="cls-155" points="24.54 286.7 23.66 288.98 26.69 287.89 27.57 285.61 24.54 286.7"/><polygon class="cls-156" points="24.55 286.7 23.67 288.98 7.41 279.9 8.29 277.63 24.55 286.7"/><polygon class="cls-157" points="8.29 277.63 24.55 286.7 27.57 285.61 11.29 276.53 8.29 277.63"/><polygon class="cls-158" points="21.01 295.87 20.13 298.15 23.15 297.06 24.03 294.78 21.01 295.87"/><polygon class="cls-159" points="21.01 295.87 20.13 298.15 3.87 289.07 4.75 286.79 21.01 295.87"/><polygon class="cls-160" points="4.75 286.79 21.01 295.87 24.03 294.78 7.76 285.7 4.75 286.79"/><polygon class="cls-161" points="39.4 253.82 20.51 303.92 23.54 302.83 42.42 252.73 39.4 253.82"/><polygon class="cls-162" points="39.4 253.82 20.52 303.92 18.39 302.72 37.28 252.63 39.4 253.82"/><polygon class="cls-163" points="37.28 252.63 39.4 253.82 42.42 252.73 40.29 251.53 37.28 252.63"/><path class="cls-164" d="M207.33,166.51a3.15,3.15,0,1,1-3.26-2.34A2.86,2.86,0,0,1,207.33,166.51Z" transform="translate(-12.24 -13.24)"/><path class="cls-165" d="M203.4,188.22a5.84,5.84,0,0,0-.9-.76c-.25-.11-.39-.22-.67-.1s0,.61,0,.61-.25-.51-.5-.42-.26.23-.25.3.08.36.08.36-.31-.33-.58-.22-.18.45-.18.45l.09.17s-.31-.26-.55,0,.14,1,.32,1.3a11.61,11.61,0,0,0,1.46,2.11c.6.61,1.44,1.33,1.44,1.33s1.91-2,1.83-2.65a2.65,2.65,0,0,1,.17-1.51,11,11,0,0,1,1-1.3c.36-.36.22-.69-.48-.48s-1.08,1-1.34,1.2S203.61,188.42,203.4,188.22Z" transform="translate(-12.24 -13.24)"/><path class="cls-166" d="M200.81,189.07a1.55,1.55,0,0,0-.17-.4,2.17,2.17,0,0,1-.18-.51.57.57,0,0,0,0,.28l.07.13A1.68,1.68,0,0,1,200.81,189.07Z" transform="translate(-12.24 -13.24)"/><path class="cls-167" d="M201.51,188.67a2.91,2.91,0,0,0-.27-.5c0,.09.07.18.07.18a1.68,1.68,0,0,0-.42-.33A2.38,2.38,0,0,1,201.51,188.67Z" transform="translate(-12.24 -13.24)"/><path class="cls-168" d="M200.61,189.83A3.22,3.22,0,0,1,200,189h0c0,.08,0,.19.06.3a2.67,2.67,0,0,0,.2.57,11.61,11.61,0,0,0,1.46,2.11c.25.25.54.52.8.76,0,0,0,0,.06,0a2.43,2.43,0,0,0-.22-.58A21.37,21.37,0,0,0,200.61,189.83Z" transform="translate(-12.24 -13.24)"/><path class="cls-169" d="M200.42,188.49h0Z" transform="translate(-12.24 -13.24)"/><path class="cls-170" d="M202.14,188.3a5.42,5.42,0,0,1-.31-.59c-.06-.13-.08-.19-.1-.24a.58.58,0,0,0,.07.38C201.73,187.73,202.14,188.3,202.14,188.3Z" transform="translate(-12.24 -13.24)"/><path class="cls-171" d="M209.11,167.2c-.61-.4-3.87,2.66-2.37,3.53S210.44,168.09,209.11,167.2Z" transform="translate(-12.24 -13.24)"/><path class="cls-172" d="M220,176.56c-1-1.75-2-2.63-4.32-4.14s-6.95-4.11-7.47-4.94a20.46,20.46,0,0,0-1.88-2.68,7,7,0,0,0-1.48-1,2.7,2.7,0,0,0-1.16-.3c-.64,0,0,.46.46.69s1,.59,1,.59l-.83-.51a3.49,3.49,0,0,0-1.45-.5c-.41,0-1.21.22-.38.51a7.07,7.07,0,0,1,1.16.59c.95.57.84.63.84.63s-.48-.33-1.13-.72a6.29,6.29,0,0,0-1.53-.46c-.47-.11-1.24.39-.38.66a3.9,3.9,0,0,1,1.26.51,10.42,10.42,0,0,1,.87.6l-.78-.47a4.44,4.44,0,0,0-1.44-.43c-.71-.19-1.3.27-.41.69a16.76,16.76,0,0,1,1.55.77c.47.27,1.08.62,1,.93s-.26.05-.86-.13a1.42,1.42,0,0,0-1.45.47c0,.24.56.3,1.1.4s1.29.82,2.12,1,1.35.19,1.62.29a38.67,38.67,0,0,1,4.81,3.47,43.33,43.33,0,0,0,5.29,3.72Z" transform="translate(-12.24 -13.24)"/><path class="cls-173" d="M208.83,167.82a4.31,4.31,0,0,1-.77,1.52,3.18,3.18,0,0,1-1.24.89l2,1.68,1.79-3.08Z" transform="translate(-12.24 -13.24)"/><path class="cls-174" d="M209.11,167.2c.12,1.11-.92,3.31-2.57,3.32-.46,0,2.49,2.35,3.31,3.33,1.2,1.42,4.48,5.36,5.67,6.44s9.72-.8,9.44-3-1.81-2.32-4-2.55-3.17.68-4.77-.82S209.07,166.87,209.11,167.2Z" transform="translate(-12.24 -13.24)"/><path class="cls-60" d="M223.57,225.1s1,1.55.4,2.1a3.4,3.4,0,0,1-2.64.86,5,5,0,0,0-2.39-.23,13.64,13.64,0,0,1-6-1.34c-.93-.71-.48-1.9,1.3-2.22a43.66,43.66,0,0,1,4.82-.69C219.56,223.62,223.57,225.1,223.57,225.1Z" transform="translate(-12.24 -13.24)"/><path class="cls-175" d="M223.11,226.55c-1.59.61-2.23.29-3.82.36s-6.34-.58-6.51-1.56.88-1,1.73-1.17,3.56-.62,3.77-.68,5,.81,5,.81.67,1.33.43,1.61S223.54,226.39,223.11,226.55Z" transform="translate(-12.24 -13.24)"/><path class="cls-176" d="M225.31,208.08l-6.45,2.22s2.29,4.88,2.91,6.89,2.39,8,1.44,8.61-5.17-.21-5.69-.71a2.77,2.77,0,0,1-.77-2.06,16.2,16.2,0,0,0-2.3-6.5c-1.52-2.29-4.64-7-3.37-10.09s10.21-7.17,10.21-7.17Z" transform="translate(-12.24 -13.24)"/><path class="cls-58" d="M225.31,208.08l-6.45,2.22s2.29,4.88,2.91,6.89,2.39,8,1.44,8.61a4.16,4.16,0,0,1-2.14.16c.1-2.15.11-5.69-.74-7.71a57.88,57.88,0,0,0-5-8.14l8.42-5.46Z" transform="translate(-12.24 -13.24)"/><path class="cls-60" d="M235.85,230.94a4.1,4.1,0,0,1,.48,1.92,2.11,2.11,0,0,1-2.41,1.06c-1.11-.28-1.76-1.22-2.2-1.42s-2.63,0-4.52-1-2-2.57-.37-2.93a13.68,13.68,0,0,1,5.83.25A17.24,17.24,0,0,1,235.85,230.94Z" transform="translate(-12.24 -13.24)"/><path class="cls-177" d="M235.39,232.57c-1.1.48-2.76-.22-3.56-.65s-1.93.11-3.74-.79-2.52-1.64-1.89-2.19,3.22-1,5.45-.3,3.74,1.18,3.74,1.18.8,1.39.62,1.77S236,232.3,235.39,232.57Z" transform="translate(-12.24 -13.24)"/><path class="cls-178" d="M228.33,198.26a27.06,27.06,0,0,1,2,8.27c.39,4.76,3.21,13.92,4.1,17.18s2.87,7.08,1.37,8.27c-.87.68-2.65.76-4.32-.52s-2.26-2.72-2.16-3,.09-1.63-1-4.26-3.53-9-3.9-11.23-4.07-12.55-4.07-12.55Z" transform="translate(-12.24 -13.24)"/><path class="cls-58" d="M224.42,212.93c.37,2.18,2.8,8.61,3.89,11.23s1.12,3.94,1,4.26.49,1.77,2.16,3a4.8,4.8,0,0,0,2,.92,15.42,15.42,0,0,1-2.91-6.8c-1.16-5.63-3.81-12.56-4.78-16.44-.57-2.28-.93-6.72-1.5-9.51l-3.89.75S224.06,210.75,224.42,212.93Z" transform="translate(-12.24 -13.24)"/><path class="cls-179" d="M211.7,165.09c-1,.74-1.92,1.83-1.45,4.57s.68,4.06,1.3,4.31.95-.19,1.21.56a8.67,8.67,0,0,1,.27,2l5.69-2.47a2.84,2.84,0,0,1-.39-1.93c.19-1.06,1.55-3.29-.3-5.85A4.81,4.81,0,0,0,211.7,165.09Z" transform="translate(-12.24 -13.24)"/><path class="cls-180" d="M209.85,167.85c.08.52.56,1.3,1.3,1.22a1.12,1.12,0,0,1,1.18,1.16c-.08.44,0,.53,0,.53s.5-.33.83.06.18,1.38.08,1.77,1.34,1.24,2.37,1.13,2.36-.48,2.7-1.08a5.73,5.73,0,0,0,.51-5.32,5,5,0,0,0-6.26-2.94C210.32,165.3,209.73,167.1,209.85,167.85Z" transform="translate(-12.24 -13.24)"/><path class="cls-181" d="M212.35,178.29s.22-2.37,1.5-2.9,2.49-.58,3.31-1.16a3.55,3.55,0,0,0,1.17-1.44s1.08.08.5,1.16S212.35,178.29,212.35,178.29Z" transform="translate(-12.24 -13.24)"/><path class="cls-182" d="M216.9,175.24a16.13,16.13,0,0,0,2.29-1.65,25,25,0,0,1,3-.44,3.15,3.15,0,0,1,3.25,2.72,45,45,0,0,1,.2,7.76,17.57,17.57,0,0,0,1.35,7.83c1.06,2.77,4.06,8.7,4.05,9.41s-1.1,3.43-4.43,5.36-9.23,3.37-12.15,1.07c-2.64-2.08-.82-7.6-2-15-.75-4.66-3.17-8.36-1.67-11.14a12.86,12.86,0,0,1,4.64-5.2A13.17,13.17,0,0,0,216.9,175.24Z" transform="translate(-12.24 -13.24)"/><path class="cls-58" d="M212.21,178.48a5,5,0,0,1,2.41-2.47,11.76,11.76,0,0,0,3.6-1.78,2.06,2.06,0,0,0,.67-1.23l1.71.29a2.68,2.68,0,0,1-1.61,3c-2.1,1.11-4.63,1.56-6.08,2.81a16.11,16.11,0,0,0-2.14,2.24Z" transform="translate(-12.24 -13.24)"/><path class="cls-183" d="M212.21,178.48a5,5,0,0,1,2.41-2.47,11.76,11.76,0,0,0,3.6-1.78,2.06,2.06,0,0,0,.67-1.23l1.71.29s.27,1.56-1.83,2.67-5,1.85-6.21,3.18a22.05,22.05,0,0,0-1.79,2.18Z" transform="translate(-12.24 -13.24)"/><path class="cls-184" d="M220.43,173.26c0,.32,0,1.63-1.84,2.59-2.11,1.11-5,1.86-6.21,3.19-.46.5-.82.93-1.1,1.28l-.51,1a22.05,22.05,0,0,1,1.79-2.18c1.22-1.33,4.1-2.08,6.21-3.18s1.83-2.67,1.83-2.67Z" transform="translate(-12.24 -13.24)"/><path class="cls-58" d="M215.5,182.05c-2-2-3.83.26-5.12,2.11.32,1.53,1.63,5.33,2.09,8.18,1.18,7.36-.64,12.88,2,15a7.69,7.69,0,0,0,5.68,1.08,30.8,30.8,0,0,1-1.12-3.67c-.94-4-.16-6.4-.7-11.86S218.06,184.64,215.5,182.05Z" transform="translate(-12.24 -13.24)"/><path class="cls-58" d="M219,167.53a6.06,6.06,0,0,1-2.58,1.71,9.6,9.6,0,0,1-4.11.54.75.75,0,0,1,.07.45c-.08.44,0,.53,0,.53s.5-.33.83.06.18,1.38.08,1.77,1.34,1.24,2.37,1.13,2.36-.48,2.7-1.08A5.78,5.78,0,0,0,219,167.53Z" transform="translate(-12.24 -13.24)"/><path class="cls-185" d="M213.84,180.37a3.48,3.48,0,0,1,2.9,4.71c-.76,2.62-3.94,9.31-5.43,10.72a4.05,4.05,0,0,1-5.12.76c-1.89-1-3.91-1.81-4.07-3.38s1.69-3.1,2.66-3.14,2.66,1,3.1.6,1.73-5.19,2.22-6.81S211.39,180.05,213.84,180.37Z" transform="translate(-12.24 -13.24)"/></g></g></svg>